RubikHebrew-Bold.ufo
<glyph name="dollar" format="1">
  <advance width="673"/>
  <unicode hex="0024"/>
  <outline>
    <contour>
      <point x="378" y="-100" type="line"/>
      <point x="392" y="-100"/>
      <point x="403" y="-89"/>
      <point x="403" y="-75" type="curve"/>
      <point x="403" y="-5" type="line"/>
      <point x="545" y="13"/>
      <point x="641" y="91"/>
      <point x="641" y="211" type="curve" smooth="yes"/>
      <point x="641" y="334"/>
      <point x="566" y="389"/>
      <point x="383" y="422" type="curve" smooth="yes"/>
      <point x="275" y="444"/>
      <point x="241" y="462"/>
      <point x="241" y="501" type="curve" smooth="yes"/>
      <point x="241" y="540"/>
      <point x="274" y="560"/>
      <point x="329" y="560" type="curve" smooth="yes"/>
      <point x="381" y="560"/>
      <point x="415" y="536"/>
      <point x="422" y="510" type="curve" smooth="yes"/>
      <point x="431" y="497"/>
      <point x="441" y="492"/>
      <point x="456" y="492" type="curve"/>
      <point x="596" y="492" type="line"/>
      <point x="608" y="492"/>
      <point x="617" y="502"/>
      <point x="617" y="514" type="curve" smooth="yes"/>
      <point x="614" y="585"/>
      <point x="542" y="678"/>
      <point x="403" y="703" type="curve"/>
      <point x="403" y="775" type="line"/>
      <point x="403" y="789"/>
      <point x="392" y="800"/>
      <point x="378" y="800" type="curve"/>
      <point x="291" y="800" type="line"/>
      <point x="276" y="800"/>
      <point x="265" y="789"/>
      <point x="265" y="775" type="curve"/>
      <point x="265" y="705" type="line"/>
      <point x="131" y="686"/>
      <point x="49" y="604"/>
      <point x="49" y="497" type="curve" smooth="yes"/>
      <point x="49" y="371"/>
      <point x="137" y="314"/>
      <point x="290" y="284" type="curve" smooth="yes"/>
      <point x="405" y="260"/>
      <point x="448" y="245"/>
      <point x="448" y="202" type="curve" smooth="yes"/>
      <point x="448" y="164"/>
      <point x="409" y="140"/>
      <point x="336" y="140" type="curve" smooth="yes"/>
      <point x="270" y="140"/>
      <point x="237" y="167"/>
      <point x="222" y="195" type="curve" smooth="yes"/>
      <point x="212" y="206"/>
      <point x="204" y="213"/>
      <point x="186" y="213" type="curve"/>
      <point x="53" y="213" type="line"/>
      <point x="41" y="213"/>
      <point x="31" y="204"/>
      <point x="31" y="192" type="curve" smooth="yes"/>
      <point x="33" y="100"/>
      <point x="111" y="13"/>
      <point x="265" y="-5" type="curve"/>
      <point x="265" y="-75" type="line"/>
      <point x="265" y="-89"/>
      <point x="276" y="-100"/>
      <point x="291" y="-100" type="curve"/>
    </contour>
  </outline>
</glyph>
<glyph name="quotesingle" format="1">
  <advance width="245"/>
  <unicode hex="0027"/>
  <outline>
    <contour>
      <point x="153" y="441" type="line" smooth="yes"/>
      <point x="174" y="441"/>
      <point x="181" y="455"/>
      <point x="182" y="469" type="curve" smooth="yes"/>
      <point x="205" y="679" type="line" smooth="yes"/>
      <point x="208" y="698"/>
      <point x="198" y="710"/>
      <point x="181" y="710" type="curve" smooth="yes"/>
      <point x="65" y="710" type="line" smooth="yes"/>
      <point x="48" y="710"/>
      <point x="38" y="698"/>
      <point x="40" y="679" type="curve" smooth="yes"/>
      <point x="63" y="469" type="line" smooth="yes"/>
      <point x="65" y="455"/>
      <point x="71" y="441"/>
      <point x="92" y="441" type="curve" smooth="yes"/>
    </contour>
  </outline>
</glyph>
<glyph name="parenleft" format="1">
  <advance width="388"/>
  <unicode hex="0028"/>
  <outline>
    <contour>
      <point x="354" y="-159"/>
      <point x="366" y="-148"/>
      <point x="366" y="-134" type="curve" smooth="yes"/>
      <point x="366" y="-44" type="line" smooth="yes"/>
      <point x="366" y="-30"/>
      <point x="354" y="-20"/>
      <point x="341" y="-19" type="curve" smooth="yes"/>
      <point x="232" y="-12"/>
      <point x="201" y="107"/>
      <point x="201" y="309" type="curve" smooth="yes"/>
      <point x="201" y="511"/>
      <point x="232" y="629"/>
      <point x="341" y="636" type="curve" smooth="yes"/>
      <point x="354" y="637"/>
      <point x="366" y="647"/>
      <point x="366" y="661" type="curve" smooth="yes"/>
      <point x="366" y="751" type="line" smooth="yes"/>
      <point x="366" y="765"/>
      <point x="354" y="776"/>
      <point x="340" y="776" type="curve" smooth="yes"/>
      <point x="156" y="776"/>
      <point x="41" y="643"/>
      <point x="41" y="309" type="curve" smooth="yes"/>
      <point x="41" y="-25"/>
      <point x="156" y="-159"/>
      <point x="340" y="-159" type="curve" smooth="yes"/>
    </contour>
  </outline>
</glyph>
<glyph name="slash" format="1">
  <advance width="539"/>
  <unicode hex="002F"/>
  <outline>
    <contour>
      <point x="137" y="-84" type="line" smooth="yes"/>
      <point x="160" y="-84"/>
      <point x="170" y="-69"/>
      <point x="174" y="-59" type="curve" smooth="yes"/>
      <point x="514" y="755" type="line" smooth="yes"/>
      <point x="516" y="760"/>
      <point x="516" y="763"/>
      <point x="516" y="765" type="curve" smooth="yes"/>
      <point x="516" y="776"/>
      <point x="507" y="786"/>
      <point x="495" y="786" type="curve" smooth="yes"/>
      <point x="400" y="786" type="line" smooth="yes"/>
      <point x="379" y="786"/>
      <point x="368" y="772"/>
      <point x="363" y="761" type="curve" smooth="yes"/>
      <point x="25" y="-53" type="line"/>
      <point x="23" y="-58"/>
      <point x="23" y="-61"/>
      <point x="23" y="-63" type="curve" smooth="yes"/>
      <point x="23" y="-74"/>
      <point x="33" y="-84"/>
      <point x="44" y="-84" type="curve" smooth="yes"/>
    </contour>
  </outline>
</glyph>
<glyph name="seven" format="1">
  <advance width="579"/>
  <unicode hex="0037"/>
  <outline>
    <contour>
      <point x="276" y="0" type="line" smooth="yes"/>
      <point x="297" y="0"/>
      <point x="307" y="15"/>
      <point x="312" y="24" type="curve" smooth="yes"/>
      <point x="541" y="535" type="line" smooth="yes"/>
      <point x="547" y="548"/>
      <point x="552" y="561"/>
      <point x="552" y="581" type="curve" smooth="yes"/>
      <point x="552" y="674" type="line" smooth="yes"/>
      <point x="552" y="689"/>
      <point x="542" y="700"/>
      <point x="527" y="700" type="curve" smooth="yes"/>
      <point x="53" y="700" type="line" smooth="yes"/>
      <point x="39" y="700"/>
      <point x="28" y="689"/>
      <point x="28" y="674" type="curve" smooth="yes"/>
      <point x="28" y="569" type="line" smooth="yes"/>
      <point x="28" y="554"/>
      <point x="39" y="543"/>
      <point x="53" y="543" type="curve" smooth="yes"/>
      <point x="350" y="543" type="line"/>
      <point x="121" y="31" type="line" smooth="yes"/>
      <point x="120" y="29"/>
      <point x="119" y="25"/>
      <point x="119" y="22" type="curve" smooth="yes"/>
      <point x="119" y="10"/>
      <point x="128" y="0"/>
      <point x="140" y="0" type="curve" smooth="yes"/>
    </contour>
  </outline>
</glyph>
<glyph name="eight" format="1">
  <advance width="681"/>
  <unicode hex="0038"/>
  <outline>
    <contour>
      <point x="541" y="-10"/>
      <point x="637" y="90"/>
      <point x="637" y="210" type="curve" smooth="yes"/>
      <point x="637" y="283"/>
      <point x="598" y="343"/>
      <point x="540" y="371" type="curve"/>
      <point x="585" y="403"/>
      <point x="608" y="450"/>
      <point x="608" y="510" type="curve" smooth="yes"/>
      <point x="608" y="621"/>
      <point x="526" y="710"/>
      <point x="340" y="710" type="curve" smooth="yes"/>
      <point x="152" y="710"/>
      <point x="69" y="620"/>
      <point x="69" y="509" type="curve" smooth="yes"/>
      <point x="69" y="448"/>
      <point x="94" y="401"/>
      <point x="140" y="371" type="curve"/>
      <point x="84" y="341"/>
      <point x="44" y="283"/>
      <point x="44" y="211" type="curve" smooth="yes"/>
      <point x="44" y="90"/>
      <point x="138" y="-10"/>
      <point x="340" y="-10" type="curve" smooth="yes"/>
    </contour>
    <contour>
      <point x="279" y="122"/>
      <point x="231" y="155"/>
      <point x="231" y="210" type="curve" smooth="yes"/>
      <point x="231" y="265"/>
      <point x="279" y="298"/>
      <point x="340" y="298" type="curve" smooth="yes"/>
      <point x="401" y="298"/>
      <point x="448" y="265"/>
      <point x="448" y="210" type="curve" smooth="yes"/>
      <point x="448" y="155"/>
      <point x="401" y="122"/>
      <point x="340" y="122" type="curve" smooth="yes"/>
    </contour>
    <contour>
      <point x="283" y="423"/>
      <point x="244" y="454"/>
      <point x="244" y="500" type="curve" smooth="yes"/>
      <point x="244" y="546"/>
      <point x="283" y="577"/>
      <point x="340" y="577" type="curve" smooth="yes"/>
      <point x="396" y="577"/>
      <point x="436" y="546"/>
      <point x="436" y="500" type="curve" smooth="yes"/>
      <point x="436" y="455"/>
      <point x="395" y="424"/>
      <point x="340" y="423" type="curve" smooth="yes"/>
    </contour>
  </outline>
</glyph>
<glyph name="at" format="1">
  <advance width="846"/>
  <unicode hex="0040"/>
  <outline>
    <contour>
      <point x="599" y="-132"/>
      <point x="696" y="-72"/>
      <point x="753" y="-6" type="curve" smooth="yes"/>
      <point x="756" y="-1"/>
      <point x="759" y="3"/>
      <point x="759" y="9" type="curve" smooth="yes"/>
      <point x="760" y="24"/>
      <point x="748" y="34"/>
      <point x="734" y="34" type="curve" smooth="yes"/>
      <point x="660" y="34" type="line" smooth="yes"/>
      <point x="647" y="34"/>
      <point x="640" y="28"/>
      <point x="629" y="20" type="curve" smooth="yes"/>
      <point x="592" y="-7"/>
      <point x="553" y="-32"/>
      <point x="430" y="-32" type="curve" smooth="yes"/>
      <point x="253" y="-32"/>
      <point x="168" y="51"/>
      <point x="153" y="191" type="curve" smooth="yes"/>
      <point x="149" y="228"/>
      <point x="149" y="317"/>
      <point x="153" y="352" type="curve" smooth="yes"/>
      <point x="168" y="485"/>
      <point x="246" y="576"/>
      <point x="417" y="576" type="curve" smooth="yes"/>
      <point x="620" y="576"/>
      <point x="690" y="504"/>
      <point x="698" y="352" type="curve" smooth="yes"/>
      <point x="701" y="311"/>
      <point x="699" y="272"/>
      <point x="699" y="243" type="curve" smooth="yes"/>
      <point x="699" y="213"/>
      <point x="688" y="179"/>
      <point x="648" y="179" type="curve" smooth="yes"/>
      <point x="616" y="179"/>
      <point x="596" y="201"/>
      <point x="596" y="243" type="curve" smooth="yes"/>
      <point x="596" y="445" type="line" smooth="yes"/>
      <point x="596" y="459"/>
      <point x="585" y="470"/>
      <point x="571" y="470" type="curve" smooth="yes"/>
      <point x="517" y="470" type="line" smooth="yes"/>
      <point x="503" y="470"/>
      <point x="492" y="459"/>
      <point x="492" y="445" type="curve" smooth="yes"/>
      <point x="492" y="432" type="line"/>
      <point x="471" y="459"/>
      <point x="443" y="478"/>
      <point x="391" y="478" type="curve" smooth="yes"/>
      <point x="293" y="478"/>
      <point x="235" y="398"/>
      <point x="235" y="273" type="curve" smooth="yes"/>
      <point x="235" y="148"/>
      <point x="295" y="69"/>
      <point x="395" y="69" type="curve" smooth="yes"/>
      <point x="483" y="69"/>
      <point x="510" y="104"/>
      <point x="524" y="129" type="curve"/>
      <point x="540" y="110"/>
      <point x="581" y="79"/>
      <point x="648" y="79" type="curve" smooth="yes"/>
      <point x="725" y="79"/>
      <point x="796" y="132"/>
      <point x="802" y="231" type="curve" smooth="yes"/>
      <point x="804" y="260"/>
      <point x="805" y="316"/>
      <point x="802" y="357" type="curve" smooth="yes"/>
      <point x="789" y="539"/>
      <point x="695" y="676"/>
      <point x="417" y="676" type="curve" smooth="yes"/>
      <point x="182" y="676"/>
      <point x="64" y="524"/>
      <point x="48" y="357" type="curve" smooth="yes"/>
      <point x="45" y="322"/>
      <point x="45" y="223"/>
      <point x="48" y="186" type="curve" smooth="yes"/>
      <point x="65" y="2"/>
      <point x="182" y="-132"/>
      <point x="430" y="-132" type="curve" smooth="yes"/>
    </contour>
    <contour>
      <point x="366" y="169"/>
      <point x="339" y="205"/>
      <point x="339" y="273" type="curve" smooth="yes"/>
      <point x="339" y="345"/>
      <point x="366" y="378"/>
      <point x="415" y="378" type="curve" smooth="yes"/>
      <point x="468" y="378"/>
      <point x="492" y="345"/>
      <point x="492" y="273" type="curve" smooth="yes"/>
      <point x="492" y="201"/>
      <point x="468" y="169"/>
      <point x="415" y="169" type="curve" smooth="yes"/>
    </contour>
  </outline>
</glyph>
<glyph name="E" format="1">
  <advance width="642"/>
  <unicode hex="0045"/>
  <outline>
    <contour>
      <point x="573" y="0" type="line" smooth="yes"/>
      <point x="588" y="0"/>
      <point x="599" y="11"/>
      <point x="599" y="25" type="curve" smooth="yes"/>
      <point x="599" y="124" type="line" smooth="yes"/>
      <point x="599" y="139"/>
      <point x="588" y="150"/>
      <point x="573" y="150" type="curve" smooth="yes"/>
      <point x="249" y="150" type="line"/>
      <point x="249" y="280" type="line"/>
      <point x="543" y="280" type="line" smooth="yes"/>
      <point x="558" y="280"/>
      <point x="569" y="291"/>
      <point x="569" y="306" type="curve" smooth="yes"/>
      <point x="569" y="397" type="line" smooth="yes"/>
      <point x="569" y="412"/>
      <point x="558" y="423"/>
      <point x="543" y="423" type="curve" smooth="yes"/>
      <point x="249" y="423" type="line"/>
      <point x="249" y="550" type="line"/>
      <point x="565" y="550" type="line" smooth="yes"/>
      <point x="580" y="550"/>
      <point x="591" y="561"/>
      <point x="591" y="575" type="curve" smooth="yes"/>
      <point x="591" y="674" type="line" smooth="yes"/>
      <point x="591" y="689"/>
      <point x="580" y="700"/>
      <point x="565" y="700" type="curve" smooth="yes"/>
      <point x="93" y="700" type="line" smooth="yes"/>
      <point x="79" y="700"/>
      <point x="68" y="689"/>
      <point x="68" y="674" type="curve" smooth="yes"/>
      <point x="68" y="25" type="line" smooth="yes"/>
      <point x="68" y="11"/>
      <point x="79" y="0"/>
      <point x="93" y="0" type="curve" smooth="yes"/>
    </contour>
  </outline>
</glyph>
<glyph name="F" format="1">
  <advance width="621"/>
  <unicode hex="0046"/>
  <outline>
    <contour>
      <point x="227" y="0" type="line" smooth="yes"/>
      <point x="241" y="0"/>
      <point x="252" y="11"/>
      <point x="252" y="25" type="curve" smooth="yes"/>
      <point x="252" y="247" type="line"/>
      <point x="538" y="247" type="line" smooth="yes"/>
      <point x="553" y="247"/>
      <point x="564" y="258"/>
      <point x="564" y="272" type="curve" smooth="yes"/>
      <point x="564" y="378" type="line" smooth="yes"/>
      <point x="564" y="393"/>
      <point x="553" y="404"/>
      <point x="538" y="404" type="curve" smooth="yes"/>
      <point x="252" y="404" type="line"/>
      <point x="252" y="543" type="line"/>
      <point x="558" y="543" type="line" smooth="yes"/>
      <point x="573" y="543"/>
      <point x="584" y="554"/>
      <point x="584" y="568" type="curve" smooth="yes"/>
      <point x="584" y="674" type="line" smooth="yes"/>
      <point x="584" y="689"/>
      <point x="573" y="700"/>
      <point x="558" y="700" type="curve" smooth="yes"/>
      <point x="93" y="700" type="line" smooth="yes"/>
      <point x="79" y="700"/>
      <point x="68" y="689"/>
      <point x="68" y="674" type="curve" smooth="yes"/>
      <point x="68" y="25" type="line" smooth="yes"/>
      <point x="68" y="11"/>
      <point x="79" y="0"/>
      <point x="93" y="0" type="curve" smooth="yes"/>
    </contour>
  </outline>
</glyph>
<glyph name="I" format="1">
  <advance width="329"/>
  <unicode hex="0049"/>
  <outline>
    <contour>
      <point x="236" y="0" type="line" smooth="yes"/>
      <point x="250" y="0"/>
      <point x="261" y="11"/>
      <point x="261" y="25" type="curve" smooth="yes"/>
      <point x="261" y="675" type="line" smooth="yes"/>
      <point x="261" y="689"/>
      <point x="250" y="700"/>
      <point x="236" y="700" type="curve" smooth="yes"/>
      <point x="93" y="700" type="line" smooth="yes"/>
      <point x="79" y="700"/>
      <point x="68" y="689"/>
      <point x="68" y="675" type="curve" smooth="yes"/>
      <point x="68" y="25" type="line" smooth="yes"/>
      <point x="68" y="11"/>
      <point x="79" y="0"/>
      <point x="93" y="0" type="curve" smooth="yes"/>
    </contour>
  </outline>
</glyph>
<glyph name="J" format="1">
  <advance width="674"/>
  <unicode hex="004A"/>
  <outline>
    <contour>
      <point x="488" y="-10"/>
      <point x="612" y="82"/>
      <point x="612" y="257" type="curve" smooth="yes"/>
      <point x="612" y="674" type="line" smooth="yes"/>
      <point x="612" y="689"/>
      <point x="601" y="700"/>
      <point x="587" y="700" type="curve" smooth="yes"/>
      <point x="98" y="700" type="line" smooth="yes"/>
      <point x="83" y="700"/>
      <point x="72" y="689"/>
      <point x="72" y="675" type="curve" smooth="yes"/>
      <point x="72" y="570" type="line" smooth="yes"/>
      <point x="72" y="556"/>
      <point x="83" y="545"/>
      <point x="98" y="545" type="curve" smooth="yes"/>
      <point x="419" y="545" type="line"/>
      <point x="419" y="263" type="line" smooth="yes"/>
      <point x="419" y="182"/>
      <point x="383" y="140"/>
      <point x="320" y="140" type="curve" smooth="yes"/>
      <point x="267" y="140"/>
      <point x="232" y="162"/>
      <point x="221" y="215" type="curve" smooth="yes"/>
      <point x="214" y="234"/>
      <point x="205" y="243"/>
      <point x="186" y="243" type="curve" smooth="yes"/>
      <point x="44" y="243" type="line" smooth="yes"/>
      <point x="31" y="243"/>
      <point x="22" y="233"/>
      <point x="22" y="221" type="curve" smooth="yes"/>
      <point x="26" y="69"/>
      <point x="161" y="-10"/>
      <point x="314" y="-10" type="curve" smooth="yes"/>
    </contour>
  </outline>
</glyph>
<glyph name="L" format="1">
  <advance width="600"/>
  <unicode hex="004C"/>
  <outline>
    <contour>
      <point x="558" y="0" type="line" smooth="yes"/>
      <point x="573" y="0"/>
      <point x="584" y="11"/>
      <point x="584" y="25" type="curve" smooth="yes"/>
      <point x="584" y="131" type="line" smooth="yes"/>
      <point x="584" y="146"/>
      <point x="573" y="157"/>
      <point x="558" y="157" type="curve" smooth="yes"/>
      <point x="258" y="157" type="line"/>
      <point x="258" y="675" type="line" smooth="yes"/>
      <point x="258" y="689"/>
      <point x="247" y="700"/>
      <point x="233" y="700" type="curve" smooth="yes"/>
      <point x="93" y="700" type="line" smooth="yes"/>
      <point x="79" y="700"/>
      <point x="68" y="689"/>
      <point x="68" y="675" type="curve" smooth="yes"/>
      <point x="68" y="25" type="line" smooth="yes"/>
      <point x="68" y="11"/>
      <point x="79" y="0"/>
      <point x="93" y="0" type="curve" smooth="yes"/>
    </contour>
  </outline>
</glyph>
<glyph name="M" format="1">
  <advance width="831"/>
  <unicode hex="004D"/>
  <outline>
    <contour>
      <point x="220" y="0" type="line" smooth="yes"/>
      <point x="235" y="0"/>
      <point x="246" y="11"/>
      <point x="246" y="25" type="curve" smooth="yes"/>
      <point x="246" y="389" type="line"/>
      <point x="353" y="191" type="line" smooth="yes"/>
      <point x="360" y="180"/>
      <point x="370" y="168"/>
      <point x="388" y="168" type="curve" smooth="yes"/>
      <point x="442" y="168" type="line" smooth="yes"/>
      <point x="461" y="168"/>
      <point x="471" y="180"/>
      <point x="477" y="191" type="curve" smooth="yes"/>
      <point x="585" y="389" type="line"/>
      <point x="585" y="25" type="line" smooth="yes"/>
      <point x="585" y="11"/>
      <point x="596" y="0"/>
      <point x="610" y="0" type="curve" smooth="yes"/>
      <point x="737" y="0" type="line" smooth="yes"/>
      <point x="752" y="0"/>
      <point x="763" y="11"/>
      <point x="763" y="25" type="curve" smooth="yes"/>
      <point x="763" y="674" type="line" smooth="yes"/>
      <point x="763" y="689"/>
      <point x="752" y="700"/>
      <point x="737" y="700" type="curve" smooth="yes"/>
      <point x="624" y="700" type="line" smooth="yes"/>
      <point x="601" y="700"/>
      <point x="591" y="684"/>
      <point x="588" y="678" type="curve" smooth="yes"/>
      <point x="415" y="370" type="line"/>
      <point x="243" y="678" type="line" smooth="yes"/>
      <point x="240" y="684"/>
      <point x="230" y="700"/>
      <point x="207" y="700" type="curve" smooth="yes"/>
      <point x="94" y="700" type="line" smooth="yes"/>
      <point x="79" y="700"/>
      <point x="68" y="689"/>
      <point x="68" y="674" type="curve" smooth="yes"/>
      <point x="68" y="25" type="line" smooth="yes"/>
      <point x="68" y="11"/>
      <point x="79" y="0"/>
      <point x="94" y="0" type="curve" smooth="yes"/>
    </contour>
  </outline>
</glyph>
<glyph name="R" format="1">
  <advance width="695"/>
  <unicode hex="0052"/>
  <outline>
    <contour>
      <point x="230" y="0" type="line" smooth="yes"/>
      <point x="245" y="0"/>
      <point x="256" y="11"/>
      <point x="256" y="25" type="curve" smooth="yes"/>
      <point x="256" y="244" type="line"/>
      <point x="352" y="244" type="line"/>
      <point x="462" y="27" type="line" smooth="yes"/>
      <point x="467" y="16"/>
      <point x="478" y="0"/>
      <point x="503" y="0" type="curve" smooth="yes"/>
      <point x="644" y="0" type="line" smooth="yes"/>
      <point x="656" y="0"/>
      <point x="665" y="10"/>
      <point x="665" y="21" type="curve" smooth="yes"/>
      <point x="665" y="26"/>
      <point x="664" y="28"/>
      <point x="662" y="32" type="curve" smooth="yes"/>
      <point x="527" y="276" type="line"/>
      <point x="600" y="310"/>
      <point x="649" y="375"/>
      <point x="649" y="471" type="curve" smooth="yes"/>
      <point x="649" y="617"/>
      <point x="543" y="700"/>
      <point x="368" y="700" type="curve" smooth="yes"/>
      <point x="93" y="700" type="line" smooth="yes"/>
      <point x="79" y="700"/>
      <point x="68" y="689"/>
      <point x="68" y="674" type="curve" smooth="yes"/>
      <point x="68" y="25" type="line" smooth="yes"/>
      <point x="68" y="11"/>
      <point x="79" y="0"/>
      <point x="93" y="0" type="curve" smooth="yes"/>
    </contour>
    <contour>
      <point x="256" y="556" type="line"/>
      <point x="367" y="556" type="line" smooth="yes"/>
      <point x="428" y="556"/>
      <point x="455" y="521"/>
      <point x="455" y="472" type="curve" smooth="yes"/>
      <point x="455" y="422"/>
      <point x="426" y="391"/>
      <point x="367" y="391" type="curve" smooth="yes"/>
      <point x="256" y="391" type="line"/>
    </contour>
  </outline>
</glyph>
<glyph name="S" format="1">
  <advance width="666"/>
  <unicode hex="0053"/>
  <outline>
    <contour>
      <point x="510" y="-10"/>
      <point x="638" y="73"/>
      <point x="638" y="211" type="curve" smooth="yes"/>
      <point x="638" y="334"/>
      <point x="563" y="389"/>
      <point x="380" y="422" type="curve" smooth="yes"/>
      <point x="272" y="444"/>
      <point x="238" y="462"/>
      <point x="238" y="501" type="curve" smooth="yes"/>
      <point x="238" y="540"/>
      <point x="271" y="560"/>
      <point x="326" y="560" type="curve" smooth="yes"/>
      <point x="378" y="560"/>
      <point x="412" y="536"/>
      <point x="419" y="510" type="curve" smooth="yes"/>
      <point x="428" y="497"/>
      <point x="438" y="492"/>
      <point x="453" y="492" type="curve" smooth="yes"/>
      <point x="593" y="492" type="line" smooth="yes"/>
      <point x="605" y="492"/>
      <point x="614" y="502"/>
      <point x="614" y="514" type="curve" smooth="yes"/>
      <point x="611" y="597"/>
      <point x="512" y="710"/>
      <point x="326" y="710" type="curve" smooth="yes"/>
      <point x="156" y="710"/>
      <point x="46" y="621"/>
      <point x="46" y="497" type="curve" smooth="yes"/>
      <point x="46" y="371"/>
      <point x="134" y="314"/>
      <point x="287" y="284" type="curve" smooth="yes"/>
      <point x="402" y="260"/>
      <point x="445" y="245"/>
      <point x="445" y="202" type="curve" smooth="yes"/>
      <point x="445" y="164"/>
      <point x="406" y="140"/>
      <point x="333" y="140" type="curve" smooth="yes"/>
      <point x="267" y="140"/>
      <point x="234" y="167"/>
      <point x="219" y="195" type="curve" smooth="yes"/>
      <point x="209" y="206"/>
      <point x="201" y="213"/>
      <point x="183" y="213" type="curve" smooth="yes"/>
      <point x="50" y="213" type="line" smooth="yes"/>
      <point x="38" y="213"/>
      <point x="28" y="204"/>
      <point x="28" y="192" type="curve" smooth="yes"/>
      <point x="31" y="88"/>
      <point x="131" y="-10"/>
      <point x="333" y="-10" type="curve" smooth="yes"/>
    </contour>
  </outline>
</glyph>
<glyph name="U" format="1">
  <advance width="728"/>
  <unicode hex="0055"/>
  <outline>
    <contour>
      <point x="546" y="-10"/>
      <point x="666" y="76"/>
      <point x="666" y="266" type="curve" smooth="yes"/>
      <point x="666" y="674" type="line" smooth="yes"/>
      <point x="666" y="689"/>
      <point x="655" y="700"/>
      <point x="640" y="700" type="curve" smooth="yes"/>
      <point x="504" y="700" type="line" smooth="yes"/>
      <point x="489" y="700"/>
      <point x="478" y="689"/>
      <point x="478" y="674" type="curve" smooth="yes"/>
      <point x="478" y="268" type="line" smooth="yes"/>
      <point x="478" y="185"/>
      <point x="436" y="144"/>
      <point x="364" y="144" type="curve" smooth="yes"/>
      <point x="291" y="144"/>
      <point x="250" y="185"/>
      <point x="250" y="268" type="curve" smooth="yes"/>
      <point x="250" y="674" type="line" smooth="yes"/>
      <point x="250" y="689"/>
      <point x="239" y="700"/>
      <point x="224" y="700" type="curve" smooth="yes"/>
      <point x="87" y="700" type="line" smooth="yes"/>
      <point x="73" y="700"/>
      <point x="62" y="689"/>
      <point x="62" y="674" type="curve" smooth="yes"/>
      <point x="62" y="266" type="line" smooth="yes"/>
      <point x="62" y="76"/>
      <point x="183" y="-10"/>
      <point x="365" y="-10" type="curve" smooth="yes"/>
    </contour>
  </outline>
</glyph>
<glyph name="bracketleft" format="1">
  <advance width="388"/>
  <unicode hex="005B"/>
  <outline>
    <contour>
      <point x="338" y="-159" type="line" smooth="yes"/>
      <point x="352" y="-159"/>
      <point x="363" y="-148"/>
      <point x="363" y="-134" type="curve" smooth="yes"/>
      <point x="363" y="-31" type="line" smooth="yes"/>
      <point x="363" y="-17"/>
      <point x="352" y="-6"/>
      <point x="338" y="-6" type="curve" smooth="yes"/>
      <point x="221" y="-6" type="line"/>
      <point x="221" y="635" type="line"/>
      <point x="338" y="635" type="line" smooth="yes"/>
      <point x="352" y="635"/>
      <point x="363" y="646"/>
      <point x="363" y="660" type="curve" smooth="yes"/>
      <point x="363" y="751" type="line" smooth="yes"/>
      <point x="363" y="765"/>
      <point x="352" y="776"/>
      <point x="338" y="776" type="curve" smooth="yes"/>
      <point x="85" y="776" type="line" smooth="yes"/>
      <point x="71" y="776"/>
      <point x="60" y="765"/>
      <point x="60" y="751" type="curve" smooth="yes"/>
      <point x="60" y="-134" type="line" smooth="yes"/>
      <point x="60" y="-148"/>
      <point x="71" y="-159"/>
      <point x="85" y="-159" type="curve" smooth="yes"/>
    </contour>
  </outline>
</glyph>
<glyph name="bracketright" format="1">
  <advance width="388"/>
  <unicode hex="005D"/>
  <outline>
    <contour>
      <point x="303" y="-159" type="line" smooth="yes"/>
      <point x="317" y="-159"/>
      <point x="328" y="-148"/>
      <point x="328" y="-134" type="curve" smooth="yes"/>
      <point x="328" y="751" type="line" smooth="yes"/>
      <point x="328" y="765"/>
      <point x="317" y="776"/>
      <point x="303" y="776" type="curve" smooth="yes"/>
      <point x="50" y="776" type="line" smooth="yes"/>
      <point x="36" y="776"/>
      <point x="25" y="765"/>
      <point x="25" y="751" type="curve" smooth="yes"/>
      <point x="25" y="660" type="line" smooth="yes"/>
      <point x="25" y="646"/>
      <point x="36" y="635"/>
      <point x="50" y="635" type="curve" smooth="yes"/>
      <point x="167" y="635" type="line"/>
      <point x="167" y="-6" type="line"/>
      <point x="50" y="-6" type="line" smooth="yes"/>
      <point x="36" y="-6"/>
      <point x="25" y="-17"/>
      <point x="25" y="-31" type="curve" smooth="yes"/>
      <point x="25" y="-134" type="line" smooth="yes"/>
      <point x="25" y="-148"/>
      <point x="36" y="-159"/>
      <point x="50" y="-159" type="curve" smooth="yes"/>
    </contour>
  </outline>
</glyph>
<glyph name="underscore" format="1">
  <advance width="734"/>
  <unicode hex="005F"/>
  <outline>
    <contour>
      <point x="664" y="-75" type="line" smooth="yes"/>
      <point x="679" y="-75"/>
      <point x="690" y="-64"/>
      <point x="690" y="-49" type="curve" smooth="yes"/>
      <point x="690" y="50" type="line" smooth="yes"/>
      <point x="690" y="64"/>
      <point x="679" y="75"/>
      <point x="664" y="75" type="curve" smooth="yes"/>
      <point x="69" y="75" type="line" smooth="yes"/>
      <point x="55" y="75"/>
      <point x="44" y="64"/>
      <point x="44" y="50" type="curve" smooth="yes"/>
      <point x="44" y="-49" type="line" smooth="yes"/>
      <point x="44" y="-64"/>
      <point x="55" y="-75"/>
      <point x="69" y="-75" type="curve" smooth="yes"/>
    </contour>
  </outline>
</glyph>
<glyph name="i" format="1">
  <advance width="290"/>
  <unicode hex="0069"/>
  <outline>
    <contour>
      <point x="207" y="0" type="line" smooth="yes"/>
      <point x="222" y="0"/>
      <point x="233" y="11"/>
      <point x="233" y="25" type="curve" smooth="yes"/>
      <point x="233" y="495" type="line" smooth="yes"/>
      <point x="233" y="509"/>
      <point x="222" y="520"/>
      <point x="207" y="520" type="curve" smooth="yes"/>
      <point x="82" y="520" type="line" smooth="yes"/>
      <point x="68" y="520"/>
      <point x="57" y="509"/>
      <point x="57" y="495" type="curve" smooth="yes"/>
      <point x="57" y="25" type="line" smooth="yes"/>
      <point x="57" y="11"/>
      <point x="68" y="0"/>
      <point x="82" y="0" type="curve" smooth="yes"/>
    </contour>
    <contour>
      <point x="208" y="592" type="line" smooth="yes"/>
      <point x="222" y="592"/>
      <point x="233" y="603"/>
      <point x="233" y="618" type="curve" smooth="yes"/>
      <point x="233" y="711" type="line" smooth="yes"/>
      <point x="233" y="725"/>
      <point x="222" y="737"/>
      <point x="208" y="737" type="curve" smooth="yes"/>
      <point x="82" y="737" type="line" smooth="yes"/>
      <point x="68" y="737"/>
      <point x="57" y="725"/>
      <point x="57" y="711" type="curve" smooth="yes"/>
      <point x="57" y="618" type="line" smooth="yes"/>
      <point x="57" y="603"/>
      <point x="68" y="592"/>
      <point x="82" y="592" type="curve" smooth="yes"/>
    </contour>
  </outline>
</glyph>
<glyph name="k" format="1">
  <advance width="591"/>
  <unicode hex="006B"/>
  <outline>
    <contour>
      <point x="205" y="0" type="line" smooth="yes"/>
      <point x="219" y="0"/>
      <point x="230" y="11"/>
      <point x="230" y="25" type="curve" smooth="yes"/>
      <point x="230" y="205" type="line"/>
      <point x="382" y="17" type="line" smooth="yes"/>
      <point x="389" y="10"/>
      <point x="396" y="0"/>
      <point x="416" y="0" type="curve" smooth="yes"/>
      <point x="562" y="0" type="line" smooth="yes"/>
      <point x="574" y="0"/>
      <point x="584" y="10"/>
      <point x="584" y="23" type="curve" smooth="yes"/>
      <point x="584" y="28"/>
      <point x="582" y="33"/>
      <point x="577" y="38" type="curve" smooth="yes"/>
      <point x="377" y="287" type="line"/>
      <point x="552" y="481" type="line" smooth="yes"/>
      <point x="557" y="485"/>
      <point x="560" y="492"/>
      <point x="560" y="497" type="curve" smooth="yes"/>
      <point x="560" y="510"/>
      <point x="550" y="520"/>
      <point x="537" y="520" type="curve" smooth="yes"/>
      <point x="396" y="520" type="line" smooth="yes"/>
      <point x="378" y="520"/>
      <point x="371" y="511"/>
      <point x="363" y="503" type="curve" smooth="yes"/>
      <point x="230" y="351" type="line"/>
      <point x="230" y="685" type="line" smooth="yes"/>
      <point x="230" y="699"/>
      <point x="219" y="710"/>
      <point x="205" y="710" type="curve" smooth="yes"/>
      <point x="82" y="710" type="line" smooth="yes"/>
      <point x="68" y="710"/>
      <point x="57" y="699"/>
      <point x="57" y="685" type="curve" smooth="yes"/>
      <point x="57" y="25" type="line" smooth="yes"/>
      <point x="57" y="11"/>
      <point x="68" y="0"/>
      <point x="82" y="0" type="curve" smooth="yes"/>
    </contour>
  </outline>
</glyph>
<glyph name="m" format="1">
  <advance width="918"/>
  <unicode hex="006D"/>
  <outline>
    <contour>
      <point x="208" y="0" type="line" smooth="yes"/>
      <point x="222" y="0"/>
      <point x="233" y="11"/>
      <point x="233" y="25" type="curve" smooth="yes"/>
      <point x="233" y="303" type="line" smooth="yes"/>
      <point x="233" y="367"/>
      <point x="267" y="391"/>
      <point x="304" y="391" type="curve" smooth="yes"/>
      <point x="343" y="391"/>
      <point x="376" y="367"/>
      <point x="376" y="302" type="curve" smooth="yes"/>
      <point x="376" y="25" type="line" smooth="yes"/>
      <point x="376" y="11"/>
      <point x="387" y="0"/>
      <point x="402" y="0" type="curve" smooth="yes"/>
      <point x="525" y="0" type="line" smooth="yes"/>
      <point x="539" y="0"/>
      <point x="550" y="11"/>
      <point x="550" y="25" type="curve" smooth="yes"/>
      <point x="550" y="302" type="line" smooth="yes"/>
      <point x="550" y="367"/>
      <point x="583" y="391"/>
      <point x="620" y="391" type="curve" smooth="yes"/>
      <point x="661" y="391"/>
      <point x="692" y="367"/>
      <point x="692" y="302" type="curve" smooth="yes"/>
      <point x="692" y="25" type="line" smooth="yes"/>
      <point x="692" y="11"/>
      <point x="703" y="0"/>
      <point x="718" y="0" type="curve" smooth="yes"/>
      <point x="841" y="0" type="line" smooth="yes"/>
      <point x="855" y="0"/>
      <point x="866" y="11"/>
      <point x="866" y="25" type="curve" smooth="yes"/>
      <point x="866" y="309" type="line" smooth="yes"/>
      <point x="866" y="462"/>
      <point x="784" y="530"/>
      <point x="681" y="530" type="curve" smooth="yes"/>
      <point x="615" y="530"/>
      <point x="553" y="494"/>
      <point x="522" y="444" type="curve"/>
      <point x="494" y="503"/>
      <point x="441" y="532"/>
      <point x="364" y="530" type="curve" smooth="yes"/>
      <point x="298" y="528"/>
      <point x="250" y="495"/>
      <point x="223" y="461" type="curve"/>
      <point x="223" y="495" type="line" smooth="yes"/>
      <point x="223" y="509"/>
      <point x="212" y="520"/>
      <point x="198" y="520" type="curve" smooth="yes"/>
      <point x="82" y="520" type="line" smooth="yes"/>
      <point x="68" y="520"/>
      <point x="57" y="509"/>
      <point x="57" y="495" type="curve" smooth="yes"/>
      <point x="57" y="25" type="line" smooth="yes"/>
      <point x="57" y="11"/>
      <point x="68" y="0"/>
      <point x="82" y="0" type="curve" smooth="yes"/>
    </contour>
  </outline>
</glyph>
<glyph name="n" format="1">
  <advance width="646"/>
  <unicode hex="006E"/>
  <outline>
    <contour>
      <point x="215" y="0" type="line" smooth="yes"/>
      <point x="229" y="0"/>
      <point x="240" y="11"/>
      <point x="240" y="25" type="curve" smooth="yes"/>
      <point x="240" y="298" type="line" smooth="yes"/>
      <point x="240" y="357"/>
      <point x="273" y="391"/>
      <point x="326" y="391" type="curve" smooth="yes"/>
      <point x="381" y="391"/>
      <point x="410" y="357"/>
      <point x="410" y="298" type="curve" smooth="yes"/>
      <point x="410" y="25" type="line" smooth="yes"/>
      <point x="410" y="11"/>
      <point x="421" y="0"/>
      <point x="436" y="0" type="curve" smooth="yes"/>
      <point x="569" y="0" type="line" smooth="yes"/>
      <point x="583" y="0"/>
      <point x="594" y="11"/>
      <point x="594" y="25" type="curve" smooth="yes"/>
      <point x="594" y="304" type="line" smooth="yes"/>
      <point x="594" y="452"/>
      <point x="509" y="530"/>
      <point x="397" y="530" type="curve" smooth="yes"/>
      <point x="321" y="530"/>
      <point x="264" y="499"/>
      <point x="230" y="457" type="curve"/>
      <point x="230" y="495" type="line" smooth="yes"/>
      <point x="230" y="509"/>
      <point x="219" y="520"/>
      <point x="205" y="520" type="curve" smooth="yes"/>
      <point x="82" y="520" type="line" smooth="yes"/>
      <point x="68" y="520"/>
      <point x="57" y="509"/>
      <point x="57" y="495" type="curve" smooth="yes"/>
      <point x="57" y="25" type="line" smooth="yes"/>
      <point x="57" y="11"/>
      <point x="68" y="0"/>
      <point x="82" y="0" type="curve" smooth="yes"/>
    </contour>
  </outline>
</glyph>
<glyph name="r" format="1">
  <advance width="461"/>
  <unicode hex="0072"/>
  <outline>
    <contour>
      <point x="214" y="0" type="line" smooth="yes"/>
      <point x="229" y="0"/>
      <point x="240" y="11"/>
      <point x="240" y="25" type="curve" smooth="yes"/>
      <point x="240" y="277" type="line" smooth="yes"/>
      <point x="240" y="331"/>
      <point x="270" y="361"/>
      <point x="323" y="361" type="curve" smooth="yes"/>
      <point x="424" y="361" type="line" smooth="yes"/>
      <point x="438" y="361"/>
      <point x="449" y="372"/>
      <point x="449" y="386" type="curve" smooth="yes"/>
      <point x="449" y="495" type="line" smooth="yes"/>
      <point x="449" y="509"/>
      <point x="438" y="520"/>
      <point x="424" y="520" type="curve" smooth="yes"/>
      <point x="379" y="520" type="line" smooth="yes"/>
      <point x="317" y="520"/>
      <point x="266" y="496"/>
      <point x="230" y="456" type="curve"/>
      <point x="230" y="494" type="line" smooth="yes"/>
      <point x="230" y="509"/>
      <point x="219" y="520"/>
      <point x="204" y="520" type="curve" smooth="yes"/>
      <point x="82" y="520" type="line" smooth="yes"/>
      <point x="68" y="520"/>
      <point x="57" y="509"/>
      <point x="57" y="494" type="curve" smooth="yes"/>
      <point x="57" y="25" type="line" smooth="yes"/>
      <point x="57" y="11"/>
      <point x="68" y="0"/>
      <point x="82" y="0" type="curve" smooth="yes"/>
    </contour>
  </outline>
</glyph>
<glyph name="t" format="1">
  <advance width="474"/>
  <unicode hex="0074"/>
  <outline>
    <contour>
      <point x="425" y="0" type="line" smooth="yes"/>
      <point x="439" y="0"/>
      <point x="450" y="11"/>
      <point x="450" y="25" type="curve" smooth="yes"/>
      <point x="450" y="117" type="line" smooth="yes"/>
      <point x="450" y="132"/>
      <point x="439" y="143"/>
      <point x="425" y="143" type="curve" smooth="yes"/>
      <point x="346" y="143" type="line" smooth="yes"/>
      <point x="306" y="143"/>
      <point x="291" y="169"/>
      <point x="291" y="214" type="curve" smooth="yes"/>
      <point x="291" y="384" type="line"/>
      <point x="416" y="384" type="line" smooth="yes"/>
      <point x="431" y="384"/>
      <point x="442" y="395"/>
      <point x="442" y="409" type="curve" smooth="yes"/>
      <point x="442" y="495" type="line" smooth="yes"/>
      <point x="442" y="509"/>
      <point x="431" y="520"/>
      <point x="416" y="520" type="curve" smooth="yes"/>
      <point x="291" y="520" type="line"/>
      <point x="291" y="685" type="line" smooth="yes"/>
      <point x="291" y="699"/>
      <point x="280" y="710"/>
      <point x="266" y="710" type="curve" smooth="yes"/>
      <point x="143" y="710" type="line" smooth="yes"/>
      <point x="129" y="710"/>
      <point x="118" y="699"/>
      <point x="118" y="685" type="curve" smooth="yes"/>
      <point x="118" y="520" type="line"/>
      <point x="39" y="520" type="line" smooth="yes"/>
      <point x="25" y="520"/>
      <point x="14" y="509"/>
      <point x="14" y="495" type="curve" smooth="yes"/>
      <point x="14" y="409" type="line" smooth="yes"/>
      <point x="14" y="395"/>
      <point x="25" y="384"/>
      <point x="39" y="384" type="curve" smooth="yes"/>
      <point x="118" y="384" type="line"/>
      <point x="118" y="199" type="line" smooth="yes"/>
      <point x="118" y="58"/>
      <point x="198" y="0"/>
      <point x="330" y="0" type="curve" smooth="yes"/>
    </contour>
  </outline>
</glyph>
<glyph name="w" format="1">
  <advance width="841"/>
  <unicode hex="0077"/>
  <outline>
    <contour>
      <point x="297" y="0" type="line" smooth="yes"/>
      <point x="317" y="0"/>
      <point x="326" y="11"/>
      <point x="331" y="25" type="curve" smooth="yes"/>
      <point x="421" y="291" type="line"/>
      <point x="510" y="25" type="line" smooth="yes"/>
      <point x="514" y="11"/>
      <point x="524" y="0"/>
      <point x="543" y="0" type="curve" smooth="yes"/>
      <point x="638" y="0" type="line" smooth="yes"/>
      <point x="658" y="0"/>
      <point x="666" y="11"/>
      <point x="671" y="25" type="curve" smooth="yes"/>
      <point x="815" y="488" type="line" smooth="yes"/>
      <point x="816" y="492"/>
      <point x="817" y="495"/>
      <point x="817" y="497" type="curve" smooth="yes"/>
      <point x="817" y="510"/>
      <point x="806" y="520"/>
      <point x="794" y="520" type="curve" smooth="yes"/>
      <point x="685" y="520" type="line" smooth="yes"/>
      <point x="667" y="520"/>
      <point x="657" y="508"/>
      <point x="655" y="499" type="curve" smooth="yes"/>
      <point x="573" y="222" type="line"/>
      <point x="486" y="497" type="line" smooth="yes"/>
      <point x="484" y="507"/>
      <point x="474" y="520"/>
      <point x="455" y="520" type="curve" smooth="yes"/>
      <point x="386" y="520" type="line" smooth="yes"/>
      <point x="367" y="520"/>
      <point x="357" y="507"/>
      <point x="354" y="497" type="curve" smooth="yes"/>
      <point x="267" y="222" type="line"/>
      <point x="186" y="499" type="line" smooth="yes"/>
      <point x="183" y="508"/>
      <point x="173" y="520"/>
      <point x="156" y="520" type="curve" smooth="yes"/>
      <point x="47" y="520" type="line" smooth="yes"/>
      <point x="34" y="520"/>
      <point x="24" y="510"/>
      <point x="24" y="497" type="curve" smooth="yes"/>
      <point x="24" y="495"/>
      <point x="24" y="492"/>
      <point x="25" y="488" type="curve" smooth="yes"/>
      <point x="170" y="25" type="line" smooth="yes"/>
      <point x="174" y="11"/>
      <point x="183" y="0"/>
      <point x="202" y="0" type="curve" smooth="yes"/>
    </contour>
  </outline>
</glyph>
<glyph name="z" format="1">
  <advance width="557"/>
  <unicode hex="007A"/>
  <outline>
    <contour>
      <point x="499" y="0" type="line" smooth="yes"/>
      <point x="513" y="0"/>
      <point x="524" y="11"/>
      <point x="524" y="25" type="curve" smooth="yes"/>
      <point x="524" y="109" type="line" smooth="yes"/>
      <point x="524" y="123"/>
      <point x="513" y="134"/>
      <point x="499" y="134" type="curve" smooth="yes"/>
      <point x="265" y="134" type="line"/>
      <point x="489" y="375" type="line" smooth="yes"/>
      <point x="498" y="384"/>
      <point x="503" y="393"/>
      <point x="503" y="405" type="curve" smooth="yes"/>
      <point x="503" y="495" type="line" smooth="yes"/>
      <point x="503" y="509"/>
      <point x="492" y="520"/>
      <point x="478" y="520" type="curve" smooth="yes"/>
      <point x="71" y="520" type="line" smooth="yes"/>
      <point x="57" y="520"/>
      <point x="46" y="509"/>
      <point x="46" y="495" type="curve" smooth="yes"/>
      <point x="46" y="411" type="line" smooth="yes"/>
      <point x="46" y="397"/>
      <point x="57" y="386"/>
      <point x="71" y="386" type="curve" smooth="yes"/>
      <point x="284" y="386" type="line"/>
      <point x="53" y="141" type="line" smooth="yes"/>
      <point x="45" y="133"/>
      <point x="38" y="122"/>
      <point x="38" y="108" type="curve" smooth="yes"/>
      <point x="38" y="25" type="line" smooth="yes"/>
      <point x="38" y="11"/>
      <point x="49" y="0"/>
      <point x="63" y="0" type="curve" smooth="yes"/>
    </contour>
  </outline>
</glyph>
<glyph name="bar" format="1">
  <advance width="268"/>
  <unicode hex="007C"/>
  <outline>
    <contour>
      <point x="181" y="-208" type="line" smooth="yes"/>
      <point x="196" y="-208"/>
      <point x="207" y="-197"/>
      <point x="207" y="-183" type="curve" smooth="yes"/>
      <point x="207" y="871" type="line" smooth="yes"/>
      <point x="207" y="885"/>
      <point x="196" y="896"/>
      <point x="181" y="896" type="curve" smooth="yes"/>
      <point x="86" y="896" type="line"/>
      <point x="72" y="896"/>
      <point x="61" y="885"/>
      <point x="61" y="871" type="curve" smooth="yes"/>
      <point x="61" y="-183" type="line" smooth="yes"/>
      <point x="61" y="-197"/>
      <point x="72" y="-208"/>
      <point x="86" y="-208" type="curve" smooth="yes"/>
    </contour>
  </outline>
</glyph>
<glyph name="brokenbar" format="1">
  <advance width="272"/>
  <unicode hex="00A6"/>
  <outline>
    <contour>
      <point x="183" y="475" type="line" smooth="yes"/>
      <point x="198" y="475"/>
      <point x="209" y="486"/>
      <point x="209" y="500" type="curve" smooth="yes"/>
      <point x="209" y="804" type="line" smooth="yes"/>
      <point x="209" y="818"/>
      <point x="198" y="829"/>
      <point x="183" y="829" type="curve" smooth="yes"/>
      <point x="88" y="829" type="line"/>
      <point x="74" y="829"/>
      <point x="63" y="818"/>
      <point x="63" y="804" type="curve" smooth="yes"/>
      <point x="63" y="500" type="line" smooth="yes"/>
      <point x="63" y="486"/>
      <point x="74" y="475"/>
      <point x="88" y="475" type="curve" smooth="yes"/>
    </contour>
    <contour>
      <point x="183" y="0" type="line" smooth="yes"/>
      <point x="198" y="0"/>
      <point x="209" y="11"/>
      <point x="209" y="25" type="curve" smooth="yes"/>
      <point x="209" y="329" type="line" smooth="yes"/>
      <point x="209" y="343"/>
      <point x="198" y="354"/>
      <point x="183" y="354" type="curve" smooth="yes"/>
      <point x="88" y="354" type="line"/>
      <point x="74" y="354"/>
      <point x="63" y="343"/>
      <point x="63" y="329" type="curve" smooth="yes"/>
      <point x="63" y="25" type="line" smooth="yes"/>
      <point x="63" y="11"/>
      <point x="74" y="0"/>
      <point x="88" y="0" type="curve" smooth="yes"/>
    </contour>
  </outline>
</glyph>
<glyph name="ordfeminine" format="1">
  <advance width="356"/>
  <unicode hex="00AA"/>
  <outline>
    <contour>
      <point x="164" y="429"/>
      <point x="194" y="442"/>
      <point x="207" y="462" type="curve"/>
      <point x="207" y="451" type="line" smooth="yes"/>
      <point x="207" y="442"/>
      <point x="215" y="434"/>
      <point x="225" y="434" type="curve" smooth="yes"/>
      <point x="290" y="434" type="line" smooth="yes"/>
      <point x="299" y="434"/>
      <point x="306" y="442"/>
      <point x="306" y="451" type="curve" smooth="yes"/>
      <point x="306" y="595" type="line" smooth="yes"/>
      <point x="306" y="667"/>
      <point x="263" y="705"/>
      <point x="179" y="705" type="curve" smooth="yes"/>
      <point x="93" y="705"/>
      <point x="54" y="658"/>
      <point x="52" y="634" type="curve" smooth="yes"/>
      <point x="51" y="625"/>
      <point x="58" y="620"/>
      <point x="66" y="620" type="curve" smooth="yes"/>
      <point x="130" y="620" type="line" smooth="yes"/>
      <point x="149" y="620"/>
      <point x="151" y="638"/>
      <point x="177" y="638" type="curve" smooth="yes"/>
      <point x="203" y="638"/>
      <point x="204" y="623"/>
      <point x="204" y="608" type="curve"/>
      <point x="147" y="599" type="line" smooth="yes"/>
      <point x="78" y="588"/>
      <point x="34" y="559"/>
      <point x="34" y="508" type="curve" smooth="yes"/>
      <point x="34" y="464"/>
      <point x="73" y="429"/>
      <point x="132" y="429" type="curve" smooth="yes"/>
    </contour>
    <contour>
      <point x="142" y="498"/>
      <point x="131" y="504"/>
      <point x="131" y="514" type="curve" smooth="yes"/>
      <point x="131" y="526"/>
      <point x="139" y="536"/>
      <point x="169" y="542" type="curve" smooth="yes"/>
      <point x="204" y="549" type="line"/>
      <point x="204" y="517"/>
      <point x="189" y="498"/>
      <point x="158" y="498" type="curve" smooth="yes"/>
    </contour>
  </outline>
</glyph>
<glyph name="registered" format="1">
  <advance width="806"/>
  <unicode hex="00AE"/>
  <outline>
    <contour>
      <point x="602" y="-10"/>
      <point x="763" y="151"/>
      <point x="763" y="350" type="curve" smooth="yes"/>
      <point x="763" y="549"/>
      <point x="602" y="710"/>
      <point x="403" y="710" type="curve" smooth="yes"/>
      <point x="204" y="710"/>
      <point x="43" y="549"/>
      <point x="43" y="350" type="curve" smooth="yes"/>
      <point x="43" y="151"/>
      <point x="204" y="-10"/>
      <point x="403" y="-10" type="curve" smooth="yes"/>
    </contour>
    <contour>
      <point x="251" y="72"/>
      <point x="130" y="197"/>
      <point x="130" y="350" type="curve" smooth="yes"/>
      <point x="130" y="503"/>
      <point x="251" y="628"/>
      <point x="403" y="628" type="curve" smooth="yes"/>
      <point x="556" y="628"/>
      <point x="677" y="503"/>
      <point x="677" y="350" type="curve" smooth="yes"/>
      <point x="677" y="197"/>
      <point x="556" y="72"/>
      <point x="403" y="72" type="curve" smooth="yes"/>
    </contour>
    <contour>
      <point x="342" y="168" type="line" smooth="yes"/>
      <point x="355" y="168"/>
      <point x="364" y="177"/>
      <point x="364" y="190" type="curve" smooth="yes"/>
      <point x="364" y="289" type="line"/>
      <point x="407" y="289" type="line"/>
      <point x="453" y="187" type="line"/>
      <point x="459" y="174"/>
      <point x="468" y="168"/>
      <point x="482" y="168" type="curve" smooth="yes"/>
      <point x="544" y="168" type="line" smooth="yes"/>
      <point x="559" y="168"/>
      <point x="566" y="179"/>
      <point x="566" y="190" type="curve"/>
      <point x="566" y="196"/>
      <point x="564" y="200"/>
      <point x="562" y="204" type="curve" smooth="yes"/>
      <point x="509" y="309" type="line"/>
      <point x="543" y="325"/>
      <point x="570" y="359"/>
      <point x="570" y="412" type="curve" smooth="yes"/>
      <point x="570" y="502"/>
      <point x="494" y="534"/>
      <point x="418" y="534" type="curve" smooth="yes"/>
      <point x="278" y="534" type="line" smooth="yes"/>
      <point x="265" y="534"/>
      <point x="256" y="525"/>
      <point x="256" y="512" type="curve" smooth="yes"/>
      <point x="256" y="190" type="line" smooth="yes"/>
      <point x="256" y="177"/>
      <point x="265" y="168"/>
      <point x="278" y="168" type="curve"/>
    </contour>
    <contour>
      <point x="364" y="450" type="line"/>
      <point x="418" y="450" type="line" smooth="yes"/>
      <point x="449" y="450"/>
      <point x="460" y="433"/>
      <point x="460" y="412" type="curve" smooth="yes"/>
      <point x="460" y="391"/>
      <point x="449" y="374"/>
      <point x="418" y="374" type="curve" smooth="yes"/>
      <point x="364" y="374" type="line"/>
    </contour>
  </outline>
</glyph>
<glyph name="macron" format="1">
  <advance width="443"/>
  <unicode hex="00AF"/>
  <outline>
    <contour>
      <point x="364" y="604" type="line" smooth="yes"/>
      <point x="377" y="604"/>
      <point x="387" y="614"/>
      <point x="387" y="627" type="curve" smooth="yes"/>
      <point x="387" y="701" type="line" smooth="yes"/>
      <point x="387" y="714"/>
      <point x="377" y="723"/>
      <point x="364" y="723" type="curve" smooth="yes"/>
      <point x="80" y="723" type="line" smooth="yes"/>
      <point x="67" y="723"/>
      <point x="57" y="714"/>
      <point x="57" y="701" type="curve" smooth="yes"/>
      <point x="57" y="627" type="line" smooth="yes"/>
      <point x="57" y="614"/>
      <point x="67" y="604"/>
      <point x="80" y="604" type="curve" smooth="yes"/>
    </contour>
  </outline>
</glyph>
<glyph name="degree" format="1">
  <advance width="413"/>
  <unicode hex="00B0"/>
  <outline>
    <contour>
      <point x="303" y="368"/>
      <point x="382" y="442"/>
      <point x="382" y="539" type="curve" smooth="yes"/>
      <point x="382" y="636"/>
      <point x="303" y="710"/>
      <point x="206" y="710" type="curve" smooth="yes"/>
      <point x="109" y="710"/>
      <point x="30" y="636"/>
      <point x="30" y="539" type="curve" smooth="yes"/>
      <point x="30" y="442"/>
      <point x="109" y="368"/>
      <point x="206" y="368" type="curve" smooth="yes"/>
    </contour>
    <contour>
      <point x="161" y="463"/>
      <point x="130" y="494"/>
      <point x="130" y="539" type="curve" smooth="yes"/>
      <point x="130" y="584"/>
      <point x="161" y="615"/>
      <point x="206" y="615" type="curve" smooth="yes"/>
      <point x="251" y="615"/>
      <point x="282" y="584"/>
      <point x="282" y="539" type="curve" smooth="yes"/>
      <point x="282" y="494"/>
      <point x="251" y="463"/>
      <point x="206" y="463" type="curve" smooth="yes"/>
    </contour>
  </outline>
</glyph>
<glyph name="plusminus" format="1">
  <advance width="569"/>
  <unicode hex="00B1"/>
  <outline>
    <contour>
      <point x="329" y="188" type="line" smooth="yes"/>
      <point x="343" y="188"/>
      <point x="354" y="199"/>
      <point x="354" y="214" type="curve" smooth="yes"/>
      <point x="354" y="360" type="line"/>
      <point x="495" y="360" type="line" smooth="yes"/>
      <point x="509" y="360"/>
      <point x="520" y="371"/>
      <point x="520" y="386" type="curve" smooth="yes"/>
      <point x="520" y="463" type="line" smooth="yes"/>
      <point x="520" y="477"/>
      <point x="509" y="488"/>
      <point x="495" y="488" type="curve" smooth="yes"/>
      <point x="354" y="488" type="line"/>
      <point x="354" y="630" type="line" smooth="yes"/>
      <point x="354" y="645"/>
      <point x="343" y="656"/>
      <point x="329" y="656" type="curve" smooth="yes"/>
      <point x="242" y="656" type="line" smooth="yes"/>
      <point x="228" y="656"/>
      <point x="217" y="645"/>
      <point x="217" y="630" type="curve" smooth="yes"/>
      <point x="217" y="488" type="line"/>
      <point x="74" y="488" type="line" smooth="yes"/>
      <point x="60" y="488"/>
      <point x="49" y="477"/>
      <point x="49" y="463" type="curve" smooth="yes"/>
      <point x="49" y="386" type="line" smooth="yes"/>
      <point x="49" y="371"/>
      <point x="60" y="360"/>
      <point x="74" y="360" type="curve" smooth="yes"/>
      <point x="217" y="360" type="line"/>
      <point x="217" y="214" type="line" smooth="yes"/>
      <point x="217" y="199"/>
      <point x="228" y="188"/>
      <point x="242" y="188" type="curve" smooth="yes"/>
    </contour>
    <contour>
      <point x="485" y="0" type="line" smooth="yes"/>
      <point x="499" y="0"/>
      <point x="510" y="11"/>
      <point x="510" y="25" type="curve" smooth="yes"/>
      <point x="510" y="103" type="line" smooth="yes"/>
      <point x="510" y="117"/>
      <point x="499" y="128"/>
      <point x="485" y="128" type="curve" smooth="yes"/>
      <point x="84" y="128" type="line" smooth="yes"/>
      <point x="70" y="128"/>
      <point x="59" y="117"/>
      <point x="59" y="103" type="curve" smooth="yes"/>
      <point x="59" y="25" type="line" smooth="yes"/>
      <point x="59" y="11"/>
      <point x="70" y="0"/>
      <point x="84" y="0" type="curve" smooth="yes"/>
    </contour>
  </outline>
</glyph>
<glyph name="cedilla" format="1">
  <advance width="295"/>
  <unicode hex="00B8"/>
  <outline>
    <contour>
      <point x="201" y="-220"/>
      <point x="238" y="-182"/>
      <point x="238" y="-131" type="curve" smooth="yes"/>
      <point x="238" y="-79"/>
      <point x="207" y="-43"/>
      <point x="158" y="-43" type="curve" smooth="yes"/>
      <point x="151" y="-43"/>
      <point x="134" y="-46"/>
      <point x="126" y="-49" type="curve"/>
      <point x="164" y="27" type="line"/>
      <point x="100" y="27" type="line"/>
      <point x="65" y="-52" type="line" smooth="yes"/>
      <point x="58" y="-68"/>
      <point x="57" y="-76"/>
      <point x="65" y="-84" type="curve" smooth="yes"/>
      <point x="84" y="-104" type="line" smooth="yes"/>
      <point x="98" y="-118"/>
      <point x="118" y="-103"/>
      <point x="140" y="-103" type="curve" smooth="yes"/>
      <point x="161" y="-103"/>
      <point x="173" y="-115"/>
      <point x="173" y="-131" type="curve" smooth="yes"/>
      <point x="173" y="-148"/>
      <point x="161" y="-161"/>
      <point x="140" y="-161" type="curve" smooth="yes"/>
      <point x="103" y="-161"/>
      <point x="97" y="-137"/>
      <point x="80" y="-153" type="curve" smooth="yes"/>
      <point x="62" y="-169" type="line" smooth="yes"/>
      <point x="41" y="-187"/>
      <point x="86" y="-220"/>
      <point x="140" y="-220" type="curve" smooth="yes"/>
    </contour>
  </outline>
</glyph>
<glyph name="ordmasculine" format="1">
  <advance width="354"/>
  <unicode hex="00BA"/>
  <outline>
    <contour>
      <point x="266" y="429"/>
      <point x="313" y="468"/>
      <point x="317" y="540" type="curve" smooth="yes"/>
      <point x="318" y="550"/>
      <point x="318" y="584"/>
      <point x="317" y="594" type="curve" smooth="yes"/>
      <point x="313" y="666"/>
      <point x="260" y="705"/>
      <point x="177" y="705" type="curve" smooth="yes"/>
      <point x="94" y="705"/>
      <point x="42" y="666"/>
      <point x="38" y="594" type="curve" smooth="yes"/>
      <point x="37" y="584"/>
      <point x="37" y="550"/>
      <point x="38" y="540" type="curve" smooth="yes"/>
      <point x="42" y="468"/>
      <point x="88" y="429"/>
      <point x="177" y="429" type="curve" smooth="yes"/>
    </contour>
    <contour>
      <point x="153" y="503"/>
      <point x="144" y="514"/>
      <point x="142" y="545" type="curve" smooth="yes"/>
      <point x="141" y="555"/>
      <point x="141" y="579"/>
      <point x="142" y="589" type="curve" smooth="yes"/>
      <point x="143" y="617"/>
      <point x="153" y="631"/>
      <point x="177" y="631" type="curve" smooth="yes"/>
      <point x="201" y="631"/>
      <point x="211" y="617"/>
      <point x="212" y="589" type="curve" smooth="yes"/>
      <point x="213" y="579"/>
      <point x="213" y="555"/>
      <point x="212" y="545" type="curve" smooth="yes"/>
      <point x="210" y="514"/>
      <point x="201" y="503"/>
      <point x="177" y="503" type="curve" smooth="yes"/>
    </contour>
  </outline>
</glyph>
<glyph name="Ccedilla" format="1">
  <advance width="706"/>
  <unicode hex="00C7"/>
  <outline>
    <contour>
      <point x="415" y="-220"/>
      <point x="451" y="-182"/>
      <point x="451" y="-131" type="curve" smooth="yes"/>
      <point x="451" y="-79"/>
      <point x="420" y="-43"/>
      <point x="372" y="-43" type="curve" smooth="yes"/>
      <point x="364" y="-43"/>
      <point x="347" y="-46"/>
      <point x="339" y="-49" type="curve"/>
      <point x="359" y="-10" type="line"/>
      <point x="535" y="-10"/>
      <point x="669" y="80"/>
      <point x="672" y="233" type="curve" smooth="yes"/>
      <point x="673" y="245"/>
      <point x="663" y="254"/>
      <point x="651" y="254" type="curve"/>
      <point x="508" y="254" type="line"/>
      <point x="490" y="254"/>
      <point x="482" y="248"/>
      <point x="476" y="228" type="curve" smooth="yes"/>
      <point x="459" y="161"/>
      <point x="416" y="140"/>
      <point x="358" y="140" type="curve" smooth="yes"/>
      <point x="288" y="140"/>
      <point x="244" y="175"/>
      <point x="241" y="266" type="curve" smooth="yes"/>
      <point x="239" y="323"/>
      <point x="239" y="379"/>
      <point x="241" y="434" type="curve" smooth="yes"/>
      <point x="244" y="525"/>
      <point x="288" y="560"/>
      <point x="358" y="560" type="curve" smooth="yes"/>
      <point x="416" y="560"/>
      <point x="457" y="541"/>
      <point x="476" y="472" type="curve" smooth="yes"/>
      <point x="482" y="452"/>
      <point x="490" y="446"/>
      <point x="508" y="446" type="curve"/>
      <point x="651" y="446" type="line"/>
      <point x="663" y="446"/>
      <point x="673" y="455"/>
      <point x="672" y="467" type="curve" smooth="yes"/>
      <point x="669" y="620"/>
      <point x="535" y="710"/>
      <point x="359" y="710" type="curve" smooth="yes"/>
      <point x="173" y="710"/>
      <point x="54" y="615"/>
      <point x="47" y="439" type="curve" smooth="yes"/>
      <point x="45" y="382"/>
      <point x="45" y="315"/>
      <point x="47" y="261" type="curve" smooth="yes"/>
      <point x="53" y="101"/>
      <point x="145" y="12"/>
      <point x="299" y="-6" type="curve"/>
      <point x="279" y="-52" type="line"/>
      <point x="271" y="-68"/>
      <point x="270" y="-76"/>
      <point x="278" y="-84" type="curve"/>
      <point x="298" y="-104" type="line"/>
      <point x="311" y="-118"/>
      <point x="331" y="-103"/>
      <point x="354" y="-103" type="curve" smooth="yes"/>
      <point x="375" y="-103"/>
      <point x="387" y="-115"/>
      <point x="387" y="-131" type="curve" smooth="yes"/>
      <point x="387" y="-148"/>
      <point x="374" y="-161"/>
      <point x="354" y="-161" type="curve" smooth="yes"/>
      <point x="316" y="-161"/>
      <point x="311" y="-137"/>
      <point x="294" y="-153" type="curve"/>
      <point x="275" y="-169" type="line"/>
      <point x="254" y="-187"/>
      <point x="299" y="-220"/>
      <point x="354" y="-220" type="curve" smooth="yes"/>
    </contour>
  </outline>
</glyph>
<glyph name="multiply" format="1">
  <advance width="606"/>
  <unicode hex="00D7"/>
  <outline>
    <contour>
      <point x="145" y="72"/>
      <point x="161" y="72"/>
      <point x="171" y="81" type="curve" smooth="yes"/>
      <point x="303" y="213" type="line"/>
      <point x="434" y="82" type="line" smooth="yes"/>
      <point x="445" y="72"/>
      <point x="460" y="72"/>
      <point x="470" y="82" type="curve" smooth="yes"/>
      <point x="554" y="166" type="line" smooth="yes"/>
      <point x="564" y="176"/>
      <point x="564" y="191"/>
      <point x="554" y="202" type="curve" smooth="yes"/>
      <point x="423" y="333" type="line"/>
      <point x="554" y="464" type="line" smooth="yes"/>
      <point x="564" y="474"/>
      <point x="564" y="490"/>
      <point x="554" y="500" type="curve" smooth="yes"/>
      <point x="470" y="584" type="line" smooth="yes"/>
      <point x="460" y="593"/>
      <point x="445" y="593"/>
      <point x="434" y="584" type="curve" smooth="yes"/>
      <point x="303" y="452" type="line"/>
      <point x="171" y="584" type="line" smooth="yes"/>
      <point x="161" y="594"/>
      <point x="145" y="594"/>
      <point x="136" y="584" type="curve" smooth="yes"/>
      <point x="52" y="500" type="line" smooth="yes"/>
      <point x="42" y="490"/>
      <point x="42" y="475"/>
      <point x="52" y="465" type="curve" smooth="yes"/>
      <point x="183" y="333" type="line"/>
      <point x="52" y="201" type="line" smooth="yes"/>
      <point x="42" y="191"/>
      <point x="42" y="176"/>
      <point x="52" y="165" type="curve" smooth="yes"/>
      <point x="136" y="81" type="line" smooth="yes"/>
    </contour>
  </outline>
</glyph>
<glyph name="Thorn" format="1">
  <advance width="681"/>
  <unicode hex="00DE"/>
  <outline>
    <contour>
      <point x="237" y="0" type="line" smooth="yes"/>
      <point x="251" y="0"/>
      <point x="262" y="11"/>
      <point x="262" y="25" type="curve" smooth="yes"/>
      <point x="262" y="127" type="line"/>
      <point x="373" y="127" type="line" smooth="yes"/>
      <point x="544" y="127"/>
      <point x="654" y="198"/>
      <point x="654" y="354" type="curve" smooth="yes"/>
      <point x="654" y="510"/>
      <point x="544" y="586"/>
      <point x="373" y="586" type="curve"/>
      <point x="262" y="586" type="line"/>
      <point x="262" y="675" type="line" smooth="yes"/>
      <point x="262" y="689"/>
      <point x="251" y="700"/>
      <point x="237" y="700" type="curve" smooth="yes"/>
      <point x="93" y="700" type="line"/>
      <point x="79" y="700"/>
      <point x="68" y="689"/>
      <point x="68" y="675" type="curve" smooth="yes"/>
      <point x="68" y="25" type="line" smooth="yes"/>
      <point x="68" y="11"/>
      <point x="79" y="0"/>
      <point x="93" y="0" type="curve" smooth="yes"/>
    </contour>
    <contour>
      <point x="259" y="442" type="line"/>
      <point x="371" y="442" type="line" smooth="yes"/>
      <point x="434" y="442"/>
      <point x="459" y="404"/>
      <point x="459" y="355" type="curve" smooth="yes"/>
      <point x="459" y="298"/>
      <point x="424" y="270"/>
      <point x="371" y="270" type="curve" smooth="yes"/>
      <point x="259" y="270" type="line"/>
    </contour>
  </outline>
</glyph>
<glyph name="thorn" format="1">
  <advance width="635"/>
  <unicode hex="00FE"/>
  <outline>
    <contour>
      <point x="212" y="-190" type="line" smooth="yes"/>
      <point x="227" y="-190"/>
      <point x="238" y="-179"/>
      <point x="238" y="-165" type="curve" smooth="yes"/>
      <point x="238" y="56" type="line"/>
      <point x="269" y="13"/>
      <point x="317" y="-10"/>
      <point x="382" y="-10" type="curve" smooth="yes"/>
      <point x="512" y="-10"/>
      <point x="590" y="79"/>
      <point x="595" y="222" type="curve" smooth="yes"/>
      <point x="596" y="249"/>
      <point x="596" y="270"/>
      <point x="595" y="297" type="curve" smooth="yes"/>
      <point x="589" y="447"/>
      <point x="512" y="530"/>
      <point x="382" y="530" type="curve" smooth="yes"/>
      <point x="309" y="530"/>
      <point x="269" y="507"/>
      <point x="238" y="466" type="curve"/>
      <point x="238" y="685" type="line" smooth="yes"/>
      <point x="238" y="699"/>
      <point x="227" y="710"/>
      <point x="212" y="710" type="curve" smooth="yes"/>
      <point x="83" y="710" type="line" smooth="yes"/>
      <point x="69" y="710"/>
      <point x="58" y="699"/>
      <point x="58" y="685" type="curve" smooth="yes"/>
      <point x="58" y="-165" type="line" smooth="yes"/>
      <point x="58" y="-179"/>
      <point x="69" y="-190"/>
      <point x="83" y="-190" type="curve" smooth="yes"/>
    </contour>
    <contour>
      <point x="265" y="129"/>
      <point x="240" y="171"/>
      <point x="238" y="219" type="curve" smooth="yes"/>
      <point x="236" y="245"/>
      <point x="236" y="267"/>
      <point x="238" y="294" type="curve" smooth="yes"/>
      <point x="240" y="345"/>
      <point x="262" y="391"/>
      <point x="325" y="391" type="curve" smooth="yes"/>
      <point x="389" y="391"/>
      <point x="407" y="347"/>
      <point x="411" y="291" type="curve" smooth="yes"/>
      <point x="413" y="271"/>
      <point x="413" y="249"/>
      <point x="411" y="229" type="curve" smooth="yes"/>
      <point x="407" y="173"/>
      <point x="389" y="129"/>
      <point x="325" y="129" type="curve" smooth="yes"/>
    </contour>
  </outline>
</glyph>
<glyph name="dcroat" format="1">
  <advance width="635"/>
  <unicode hex="0111"/>
  <outline>
    <contour>
      <point x="326" y="-10"/>
      <point x="376" y="20"/>
      <point x="407" y="61" type="curve"/>
      <point x="407" y="25" type="line" smooth="yes"/>
      <point x="407" y="11"/>
      <point x="418" y="0"/>
      <point x="433" y="0" type="curve" smooth="yes"/>
      <point x="552" y="0" type="line" smooth="yes"/>
      <point x="566" y="0"/>
      <point x="577" y="11"/>
      <point x="577" y="25" type="curve" smooth="yes"/>
      <point x="577" y="556" type="line"/>
      <point x="616" y="556" type="line" smooth="yes"/>
      <point x="631" y="556"/>
      <point x="642" y="567"/>
      <point x="642" y="581" type="curve" smooth="yes"/>
      <point x="642" y="620" type="line" smooth="yes"/>
      <point x="642" y="634"/>
      <point x="631" y="645"/>
      <point x="616" y="645" type="curve" smooth="yes"/>
      <point x="577" y="645" type="line"/>
      <point x="577" y="685" type="line" smooth="yes"/>
      <point x="577" y="699"/>
      <point x="566" y="710"/>
      <point x="552" y="710" type="curve" smooth="yes"/>
      <point x="423" y="710" type="line" smooth="yes"/>
      <point x="408" y="710"/>
      <point x="397" y="699"/>
      <point x="397" y="685" type="curve" smooth="yes"/>
      <point x="397" y="645" type="line"/>
      <point x="358" y="645" type="line" smooth="yes"/>
      <point x="344" y="645"/>
      <point x="333" y="634"/>
      <point x="333" y="620" type="curve" smooth="yes"/>
      <point x="333" y="581" type="line" smooth="yes"/>
      <point x="333" y="567"/>
      <point x="344" y="556"/>
      <point x="358" y="556" type="curve" smooth="yes"/>
      <point x="397" y="556" type="line"/>
      <point x="397" y="472" type="line"/>
      <point x="365" y="506"/>
      <point x="318" y="530"/>
      <point x="253" y="530" type="curve" smooth="yes"/>
      <point x="117" y="530"/>
      <point x="45" y="433"/>
      <point x="40" y="296" type="curve" smooth="yes"/>
      <point x="39" y="269"/>
      <point x="39" y="251"/>
      <point x="40" y="225" type="curve" smooth="yes"/>
      <point x="46" y="81"/>
      <point x="117" y="-10"/>
      <point x="253" y="-10" type="curve" smooth="yes"/>
    </contour>
    <contour>
      <point x="246" y="129"/>
      <point x="227" y="173"/>
      <point x="224" y="229" type="curve" smooth="yes"/>
      <point x="222" y="249"/>
      <point x="222" y="271"/>
      <point x="224" y="291" type="curve" smooth="yes"/>
      <point x="227" y="347"/>
      <point x="246" y="391"/>
      <point x="310" y="391" type="curve" smooth="yes"/>
      <point x="370" y="391"/>
      <point x="395" y="349"/>
      <point x="397" y="301" type="curve" smooth="yes"/>
      <point x="399" y="275"/>
      <point x="399" y="253"/>
      <point x="397" y="226" type="curve" smooth="yes"/>
      <point x="395" y="175"/>
      <point x="373" y="129"/>
      <point x="310" y="129" type="curve" smooth="yes"/>
    </contour>
  </outline>
</glyph>
<glyph name="hbar" format="1">
  <advance width="654"/>
  <unicode hex="0127"/>
  <outline>
    <contour>
      <point x="218" y="0" type="line" smooth="yes"/>
      <point x="233" y="0"/>
      <point x="244" y="11"/>
      <point x="244" y="25" type="curve" smooth="yes"/>
      <point x="244" y="298" type="line" smooth="yes"/>
      <point x="244" y="357"/>
      <point x="277" y="391"/>
      <point x="330" y="391" type="curve" smooth="yes"/>
      <point x="385" y="391"/>
      <point x="415" y="357"/>
      <point x="415" y="298" type="curve" smooth="yes"/>
      <point x="415" y="26" type="line" smooth="yes"/>
      <point x="415" y="12"/>
      <point x="426" y="1"/>
      <point x="440" y="1" type="curve" smooth="yes"/>
      <point x="576" y="1" type="line" smooth="yes"/>
      <point x="591" y="1"/>
      <point x="602" y="12"/>
      <point x="602" y="26" type="curve" smooth="yes"/>
      <point x="602" y="304" type="line" smooth="yes"/>
      <point x="602" y="452"/>
      <point x="514" y="530"/>
      <point x="401" y="530" type="curve" smooth="yes"/>
      <point x="331" y="530"/>
      <point x="279" y="503"/>
      <point x="244" y="462" type="curve"/>
      <point x="244" y="549" type="line"/>
      <point x="279" y="549" type="line" smooth="yes"/>
      <point x="293" y="549"/>
      <point x="304" y="560"/>
      <point x="304" y="574" type="curve" smooth="yes"/>
      <point x="304" y="613" type="line" smooth="yes"/>
      <point x="304" y="627"/>
      <point x="293" y="638"/>
      <point x="279" y="638" type="curve" smooth="yes"/>
      <point x="244" y="638" type="line"/>
      <point x="244" y="685" type="line" smooth="yes"/>
      <point x="244" y="699"/>
      <point x="233" y="710"/>
      <point x="218" y="710" type="curve" smooth="yes"/>
      <point x="83" y="710" type="line" smooth="yes"/>
      <point x="68" y="710"/>
      <point x="57" y="699"/>
      <point x="57" y="685" type="curve" smooth="yes"/>
      <point x="57" y="638" type="line"/>
      <point x="21" y="638" type="line" smooth="yes"/>
      <point x="6" y="638"/>
      <point x="-5" y="627"/>
      <point x="-5" y="613" type="curve" smooth="yes"/>
      <point x="-5" y="574" type="line" smooth="yes"/>
      <point x="-5" y="560"/>
      <point x="6" y="549"/>
      <point x="21" y="549" type="curve" smooth="yes"/>
      <point x="57" y="549" type="line"/>
      <point x="57" y="25" type="line" smooth="yes"/>
      <point x="57" y="11"/>
      <point x="68" y="0"/>
      <point x="83" y="0" type="curve" smooth="yes"/>
    </contour>
  </outline>
</glyph>
<glyph name="eng" format="1">
  <advance width="646"/>
  <unicode hex="014B"/>
  <outline>
    <contour>
      <point x="329" y="-225" type="line" smooth="yes"/>
      <point x="491" y="-225"/>
      <point x="594" y="-145"/>
      <point x="594" y="13" type="curve" smooth="yes"/>
      <point x="594" y="304" type="line" smooth="yes"/>
      <point x="594" y="452"/>
      <point x="509" y="530"/>
      <point x="397" y="530" type="curve" smooth="yes"/>
      <point x="321" y="530"/>
      <point x="264" y="499"/>
      <point x="230" y="457" type="curve"/>
      <point x="230" y="495" type="line" smooth="yes"/>
      <point x="230" y="509"/>
      <point x="219" y="520"/>
      <point x="205" y="520" type="curve" smooth="yes"/>
      <point x="82" y="520" type="line" smooth="yes"/>
      <point x="68" y="520"/>
      <point x="57" y="509"/>
      <point x="57" y="495" type="curve" smooth="yes"/>
      <point x="57" y="25" type="line" smooth="yes"/>
      <point x="57" y="11"/>
      <point x="68" y="0"/>
      <point x="82" y="0" type="curve" smooth="yes"/>
      <point x="215" y="0" type="line" smooth="yes"/>
      <point x="229" y="0"/>
      <point x="240" y="11"/>
      <point x="240" y="25" type="curve" smooth="yes"/>
      <point x="240" y="298" type="line" smooth="yes"/>
      <point x="240" y="357"/>
      <point x="273" y="391"/>
      <point x="326" y="391" type="curve" smooth="yes"/>
      <point x="381" y="391"/>
      <point x="410" y="357"/>
      <point x="410" y="298" type="curve" smooth="yes"/>
      <point x="410" y="20" type="line" smooth="yes"/>
      <point x="410" y="-41"/>
      <point x="391" y="-70"/>
      <point x="336" y="-70" type="curve" smooth="yes"/>
      <point x="308" y="-70" type="line" smooth="yes"/>
      <point x="294" y="-70"/>
      <point x="283" y="-81"/>
      <point x="283" y="-96" type="curve"/>
      <point x="283" y="-200" type="line" smooth="yes"/>
      <point x="283" y="-214"/>
      <point x="294" y="-225"/>
      <point x="308" y="-225" type="curve" smooth="yes"/>
    </contour>
  </outline>
</glyph>
<glyph name="Scedilla" format="1">
  <advance width="666"/>
  <unicode hex="015E"/>
  <outline>
    <contour>
      <point x="391" y="-220"/>
      <point x="428" y="-182"/>
      <point x="428" y="-131" type="curve" smooth="yes"/>
      <point x="428" y="-79"/>
      <point x="397" y="-43"/>
      <point x="348" y="-43" type="curve" smooth="yes"/>
      <point x="341" y="-43"/>
      <point x="324" y="-46"/>
      <point x="316" y="-49" type="curve"/>
      <point x="335" y="-10" type="line"/>
      <point x="512" y="-9"/>
      <point x="638" y="74"/>
      <point x="638" y="211" type="curve" smooth="yes"/>
      <point x="638" y="334"/>
      <point x="563" y="389"/>
      <point x="380" y="422" type="curve" smooth="yes"/>
      <point x="272" y="444"/>
      <point x="238" y="462"/>
      <point x="238" y="501" type="curve" smooth="yes"/>
      <point x="238" y="540"/>
      <point x="271" y="560"/>
      <point x="326" y="560" type="curve" smooth="yes"/>
      <point x="378" y="560"/>
      <point x="412" y="536"/>
      <point x="419" y="510" type="curve" smooth="yes"/>
      <point x="428" y="497"/>
      <point x="438" y="492"/>
      <point x="453" y="492" type="curve"/>
      <point x="593" y="492" type="line"/>
      <point x="605" y="492"/>
      <point x="614" y="502"/>
      <point x="614" y="514" type="curve" smooth="yes"/>
      <point x="611" y="597"/>
      <point x="512" y="710"/>
      <point x="326" y="710" type="curve" smooth="yes"/>
      <point x="156" y="710"/>
      <point x="46" y="621"/>
      <point x="46" y="497" type="curve" smooth="yes"/>
      <point x="46" y="371"/>
      <point x="134" y="314"/>
      <point x="287" y="284" type="curve" smooth="yes"/>
      <point x="402" y="260"/>
      <point x="445" y="245"/>
      <point x="445" y="202" type="curve" smooth="yes"/>
      <point x="445" y="164"/>
      <point x="406" y="140"/>
      <point x="333" y="140" type="curve" smooth="yes"/>
      <point x="267" y="140"/>
      <point x="234" y="167"/>
      <point x="219" y="195" type="curve" smooth="yes"/>
      <point x="209" y="206"/>
      <point x="201" y="213"/>
      <point x="183" y="213" type="curve"/>
      <point x="50" y="213" type="line"/>
      <point x="38" y="213"/>
      <point x="28" y="204"/>
      <point x="28" y="192" type="curve" smooth="yes"/>
      <point x="30" y="98"/>
      <point x="112" y="9"/>
      <point x="275" y="-7" type="curve"/>
      <point x="255" y="-52" type="line"/>
      <point x="248" y="-68"/>
      <point x="247" y="-76"/>
      <point x="255" y="-84" type="curve"/>
      <point x="274" y="-104" type="line"/>
      <point x="288" y="-118"/>
      <point x="308" y="-103"/>
      <point x="330" y="-103" type="curve" smooth="yes"/>
      <point x="351" y="-103"/>
      <point x="363" y="-115"/>
      <point x="363" y="-131" type="curve" smooth="yes"/>
      <point x="363" y="-148"/>
      <point x="351" y="-161"/>
      <point x="330" y="-161" type="curve" smooth="yes"/>
      <point x="293" y="-161"/>
      <point x="287" y="-137"/>
      <point x="270" y="-153" type="curve"/>
      <point x="252" y="-169" type="line"/>
      <point x="231" y="-187"/>
      <point x="276" y="-220"/>
      <point x="330" y="-220" type="curve" smooth="yes"/>
    </contour>
  </outline>
</glyph>
<glyph name="longs" format="1">
  <advance width="349"/>
  <unicode hex="017F"/>
  <outline>
    <contour>
      <point x="266" y="0" type="line" smooth="yes"/>
      <point x="280" y="0"/>
      <point x="291" y="11"/>
      <point x="291" y="25" type="curve" smooth="yes"/>
      <point x="291" y="545" type="line"/>
      <point x="291" y="580"/>
      <point x="303" y="604"/>
      <point x="350" y="604" type="curve" smooth="yes"/>
      <point x="421" y="604" type="line" smooth="yes"/>
      <point x="435" y="604"/>
      <point x="446" y="615"/>
      <point x="446" y="629" type="curve" smooth="yes"/>
      <point x="446" y="715" type="line" smooth="yes"/>
      <point x="446" y="729"/>
      <point x="435" y="740"/>
      <point x="421" y="740" type="curve" smooth="yes"/>
      <point x="342" y="740" type="line" smooth="yes"/>
      <point x="204" y="740"/>
      <point x="118" y="689"/>
      <point x="118" y="549" type="curve" smooth="yes"/>
      <point x="118" y="520" type="line"/>
      <point x="42" y="520" type="line" smooth="yes"/>
      <point x="28" y="520"/>
      <point x="17" y="509"/>
      <point x="17" y="495" type="curve" smooth="yes"/>
      <point x="17" y="409" type="line" smooth="yes"/>
      <point x="17" y="395"/>
      <point x="28" y="384"/>
      <point x="42" y="384" type="curve" smooth="yes"/>
      <point x="118" y="384" type="line"/>
      <point x="118" y="25" type="line" smooth="yes"/>
      <point x="118" y="11"/>
      <point x="129" y="0"/>
      <point x="143" y="0" type="curve" smooth="yes"/>
    </contour>
  </outline>
</glyph>
<glyph name="caron" format="1">
  <advance width="489"/>
  <unicode hex="02C7"/>
  <outline>
    <contour>
      <point x="287" y="595" type="line" smooth="yes"/>
      <point x="300" y="595"/>
      <point x="309" y="598"/>
      <point x="322" y="612" type="curve" smooth="yes"/>
      <point x="426" y="722" type="line" smooth="yes"/>
      <point x="430" y="727"/>
      <point x="433" y="732"/>
      <point x="433" y="737" type="curve" smooth="yes"/>
      <point x="433" y="747"/>
      <point x="428" y="752"/>
      <point x="418" y="752" type="curve" smooth="yes"/>
      <point x="368" y="752" type="line" smooth="yes"/>
      <point x="357" y="752"/>
      <point x="344" y="751"/>
      <point x="333" y="745" type="curve" smooth="yes"/>
      <point x="245" y="697" type="line"/>
      <point x="157" y="745" type="line" smooth="yes"/>
      <point x="146" y="751"/>
      <point x="133" y="752"/>
      <point x="122" y="752" type="curve" smooth="yes"/>
      <point x="72" y="752" type="line" smooth="yes"/>
      <point x="62" y="752"/>
      <point x="57" y="747"/>
      <point x="57" y="737" type="curve" smooth="yes"/>
      <point x="57" y="732"/>
      <point x="60" y="727"/>
      <point x="64" y="722" type="curve" smooth="yes"/>
      <point x="168" y="612" type="line" smooth="yes"/>
      <point x="181" y="598"/>
      <point x="190" y="595"/>
      <point x="203" y="595" type="curve" smooth="yes"/>
    </contour>
  </outline>
</glyph>
<glyph name="dotaccent" format="1">
  <advance width="262"/>
  <unicode hex="02D9"/>
  <outline>
    <contour>
      <point x="183" y="602" type="line" smooth="yes"/>
      <point x="196" y="602"/>
      <point x="206" y="612"/>
      <point x="206" y="625" type="curve" smooth="yes"/>
      <point x="206" y="728" type="line" smooth="yes"/>
      <point x="206" y="741"/>
      <point x="196" y="751"/>
      <point x="183" y="751" type="curve" smooth="yes"/>
      <point x="80" y="751" type="line" smooth="yes"/>
      <point x="67" y="751"/>
      <point x="57" y="741"/>
      <point x="57" y="728" type="curve" smooth="yes"/>
      <point x="57" y="625" type="line" smooth="yes"/>
      <point x="57" y="612"/>
      <point x="67" y="602"/>
      <point x="80" y="602" type="curve" smooth="yes"/>
    </contour>
  </outline>
</glyph>
<glyph name="ring" format="1">
  <advance width="300"/>
  <unicode hex="02DA"/>
  <outline>
    <contour>
      <point x="202" y="590"/>
      <point x="244" y="627"/>
      <point x="244" y="678" type="curve" smooth="yes"/>
      <point x="244" y="730"/>
      <point x="202" y="767"/>
      <point x="150" y="767" type="curve" smooth="yes"/>
      <point x="99" y="767"/>
      <point x="57" y="730"/>
      <point x="57" y="678" type="curve" smooth="yes"/>
      <point x="57" y="627"/>
      <point x="99" y="590"/>
      <point x="150" y="590" type="curve" smooth="yes"/>
    </contour>
    <contour>
      <point x="133" y="648"/>
      <point x="120" y="661"/>
      <point x="120" y="678" type="curve" smooth="yes"/>
      <point x="120" y="695"/>
      <point x="133" y="708"/>
      <point x="150" y="708" type="curve" smooth="yes"/>
      <point x="167" y="708"/>
      <point x="180" y="695"/>
      <point x="180" y="678" type="curve" smooth="yes"/>
      <point x="180" y="661"/>
      <point x="167" y="648"/>
      <point x="150" y="648" type="curve" smooth="yes"/>
    </contour>
  </outline>
</glyph>
<glyph name="Dje-cy" format="1">
  <advance width="753"/>
  <unicode hex="0402"/>
  <outline>
    <contour>
      <point x="463" y="-225" type="line"/>
      <point x="620" y="-225"/>
      <point x="714" y="-147"/>
      <point x="714" y="8" type="curve"/>
      <point x="714" y="245" type="line"/>
      <point x="714" y="410"/>
      <point x="625" y="484"/>
      <point x="450" y="484" type="curve"/>
      <point x="344" y="484" type="line"/>
      <point x="344" y="562" type="line"/>
      <point x="485" y="562" type="line"/>
      <point x="498" y="562"/>
      <point x="508" y="572"/>
      <point x="508" y="585" type="curve"/>
      <point x="508" y="677" type="line"/>
      <point x="508" y="690"/>
      <point x="498" y="700"/>
      <point x="485" y="700" type="curve"/>
      <point x="39" y="700" type="line"/>
      <point x="26" y="700"/>
      <point x="16" y="690"/>
      <point x="16" y="677" type="curve"/>
      <point x="16" y="585" type="line"/>
      <point x="16" y="572"/>
      <point x="26" y="562"/>
      <point x="39" y="562" type="curve"/>
      <point x="163" y="562" type="line"/>
      <point x="163" y="25" type="line"/>
      <point x="163" y="11"/>
      <point x="174" y="0"/>
      <point x="189" y="0" type="curve"/>
      <point x="318" y="0" type="line"/>
      <point x="333" y="0"/>
      <point x="344" y="11"/>
      <point x="344" y="25" type="curve"/>
      <point x="344" y="331" type="line"/>
      <point x="444" y="331" type="line"/>
      <point x="506" y="331"/>
      <point x="533" y="306"/>
      <point x="533" y="238" type="curve"/>
      <point x="533" y="17" type="line"/>
      <point x="533" y="-44"/>
      <point x="518" y="-85"/>
      <point x="466" y="-85" type="curve"/>
      <point x="451" y="-85" type="line"/>
      <point x="437" y="-85"/>
      <point x="426" y="-96"/>
      <point x="426" y="-111" type="curve"/>
      <point x="426" y="-200" type="line"/>
      <point x="426" y="-214"/>
      <point x="437" y="-225"/>
      <point x="451" y="-225" type="curve"/>
    </contour>
  </outline>
</glyph>
<glyph name="Tshe-cy" format="1">
  <advance width="753"/>
  <unicode hex="040B"/>
  <outline>
    <contour>
      <point x="318" y="0" type="line" smooth="yes"/>
      <point x="333" y="0"/>
      <point x="344" y="11"/>
      <point x="344" y="25" type="curve" smooth="yes"/>
      <point x="344" y="331" type="line"/>
      <point x="444" y="331" type="line" smooth="yes"/>
      <point x="506" y="331"/>
      <point x="533" y="306"/>
      <point x="533" y="238" type="curve" smooth="yes"/>
      <point x="533" y="25" type="line" smooth="yes"/>
      <point x="533" y="11"/>
      <point x="544" y="0"/>
      <point x="558" y="0" type="curve" smooth="yes"/>
      <point x="688" y="0" type="line" smooth="yes"/>
      <point x="703" y="0"/>
      <point x="714" y="11"/>
      <point x="714" y="25" type="curve" smooth="yes"/>
      <point x="714" y="245" type="line" smooth="yes"/>
      <point x="714" y="410"/>
      <point x="625" y="484"/>
      <point x="450" y="484" type="curve" smooth="yes"/>
      <point x="344" y="484" type="line"/>
      <point x="344" y="562" type="line"/>
      <point x="485" y="562" type="line" smooth="yes"/>
      <point x="498" y="562"/>
      <point x="508" y="572"/>
      <point x="508" y="585" type="curve" smooth="yes"/>
      <point x="508" y="677" type="line" smooth="yes"/>
      <point x="508" y="690"/>
      <point x="498" y="700"/>
      <point x="485" y="700" type="curve" smooth="yes"/>
      <point x="39" y="700" type="line" smooth="yes"/>
      <point x="26" y="700"/>
      <point x="16" y="690"/>
      <point x="16" y="677" type="curve" smooth="yes"/>
      <point x="16" y="585" type="line" smooth="yes"/>
      <point x="16" y="572"/>
      <point x="26" y="562"/>
      <point x="39" y="562" type="curve" smooth="yes"/>
      <point x="163" y="562" type="line"/>
      <point x="163" y="25" type="line" smooth="yes"/>
      <point x="163" y="11"/>
      <point x="174" y="0"/>
      <point x="189" y="0" type="curve" smooth="yes"/>
    </contour>
  </outline>
</glyph>
<glyph name="De-cy" format="1">
  <advance width="777"/>
  <unicode hex="0414"/>
  <outline>
    <contour>
      <point x="183" y="-110" type="line" smooth="yes"/>
      <point x="198" y="-110"/>
      <point x="209" y="-99"/>
      <point x="209" y="-85" type="curve" smooth="yes"/>
      <point x="209" y="0" type="line"/>
      <point x="548" y="0" type="line"/>
      <point x="548" y="-85" type="line" smooth="yes"/>
      <point x="548" y="-99"/>
      <point x="559" y="-110"/>
      <point x="573" y="-110" type="curve" smooth="yes"/>
      <point x="710" y="-110" type="line" smooth="yes"/>
      <point x="724" y="-110"/>
      <point x="735" y="-99"/>
      <point x="735" y="-85" type="curve" smooth="yes"/>
      <point x="735" y="141" type="line" smooth="yes"/>
      <point x="735" y="156"/>
      <point x="724" y="167"/>
      <point x="710" y="167" type="curve" smooth="yes"/>
      <point x="674" y="167" type="line"/>
      <point x="674" y="675" type="line" smooth="yes"/>
      <point x="674" y="689"/>
      <point x="663" y="700"/>
      <point x="649" y="700" type="curve" smooth="yes"/>
      <point x="153" y="700" type="line"/>
      <point x="139" y="700"/>
      <point x="128" y="689"/>
      <point x="128" y="675" type="curve" smooth="yes"/>
      <point x="128" y="254" type="line" smooth="yes"/>
      <point x="128" y="194"/>
      <point x="97" y="167"/>
      <point x="55" y="167" type="curve" smooth="yes"/>
      <point x="46" y="167" type="line" smooth="yes"/>
      <point x="32" y="167"/>
      <point x="21" y="156"/>
      <point x="21" y="141" type="curve" smooth="yes"/>
      <point x="21" y="-85" type="line" smooth="yes"/>
      <point x="21" y="-100"/>
      <point x="32" y="-110"/>
      <point x="46" y="-110" type="curve" smooth="yes"/>
    </contour>
    <contour>
      <point x="304" y="175"/>
      <point x="316" y="212"/>
      <point x="316" y="250" type="curve" smooth="yes"/>
      <point x="316" y="533" type="line"/>
      <point x="487" y="533" type="line"/>
      <point x="487" y="167" type="line"/>
      <point x="300" y="167" type="line"/>
    </contour>
  </outline>
</glyph>
<glyph name="Ze-cy" format="1">
  <advance width="671"/>
  <unicode hex="0417"/>
  <outline>
    <contour>
      <point x="505" y="-10"/>
      <point x="630" y="82"/>
      <point x="630" y="204" type="curve" smooth="yes"/>
      <point x="630" y="259"/>
      <point x="605" y="320"/>
      <point x="530" y="353" type="curve"/>
      <point x="600" y="390"/>
      <point x="618" y="452"/>
      <point x="618" y="502" type="curve" smooth="yes"/>
      <point x="618" y="615"/>
      <point x="506" y="710"/>
      <point x="329" y="710" type="curve" smooth="yes"/>
      <point x="121" y="710"/>
      <point x="39" y="602"/>
      <point x="36" y="514" type="curve" smooth="yes"/>
      <point x="36" y="502"/>
      <point x="46" y="493"/>
      <point x="58" y="493" type="curve" smooth="yes"/>
      <point x="198" y="493" type="line" smooth="yes"/>
      <point x="214" y="493"/>
      <point x="221" y="499"/>
      <point x="228" y="510" type="curve" smooth="yes"/>
      <point x="241" y="544"/>
      <point x="269" y="560"/>
      <point x="327" y="560" type="curve" smooth="yes"/>
      <point x="390" y="560"/>
      <point x="424" y="530"/>
      <point x="424" y="489" type="curve" smooth="yes"/>
      <point x="424" y="442"/>
      <point x="390" y="424"/>
      <point x="328" y="424" type="curve" smooth="yes"/>
      <point x="239" y="424" type="line" smooth="yes"/>
      <point x="224" y="424"/>
      <point x="213" y="412"/>
      <point x="213" y="397" type="curve" smooth="yes"/>
      <point x="213" y="312" type="line" smooth="yes"/>
      <point x="213" y="298"/>
      <point x="224" y="285"/>
      <point x="239" y="285" type="curve" smooth="yes"/>
      <point x="330" y="285" type="line" smooth="yes"/>
      <point x="397" y="285"/>
      <point x="436" y="262"/>
      <point x="436" y="216" type="curve" smooth="yes"/>
      <point x="436" y="170"/>
      <point x="393" y="139"/>
      <point x="326" y="139" type="curve" smooth="yes"/>
      <point x="264" y="139"/>
      <point x="235" y="159"/>
      <point x="222" y="188" type="curve" smooth="yes"/>
      <point x="214" y="200"/>
      <point x="206" y="206"/>
      <point x="190" y="206" type="curve" smooth="yes"/>
      <point x="51" y="206" type="line" smooth="yes"/>
      <point x="39" y="206"/>
      <point x="29" y="197"/>
      <point x="29" y="185" type="curve" smooth="yes"/>
      <point x="32" y="99"/>
      <point x="118" y="-10"/>
      <point x="327" y="-10" type="curve" smooth="yes"/>
    </contour>
  </outline>
</glyph>
<glyph name="Hardsign-cy" format="1">
  <advance width="762"/>
  <unicode hex="042A"/>
  <outline>
    <contour>
      <point x="462" y="0" type="line" smooth="yes"/>
      <point x="635" y="0"/>
      <point x="736" y="91"/>
      <point x="736" y="231" type="curve" smooth="yes"/>
      <point x="736" y="382"/>
      <point x="631" y="456"/>
      <point x="462" y="456" type="curve" smooth="yes"/>
      <point x="345" y="456" type="line"/>
      <point x="345" y="674" type="line" smooth="yes"/>
      <point x="345" y="689"/>
      <point x="334" y="700"/>
      <point x="319" y="700" type="curve" smooth="yes"/>
      <point x="42" y="700" type="line" smooth="yes"/>
      <point x="28" y="700"/>
      <point x="17" y="689"/>
      <point x="17" y="674" type="curve" smooth="yes"/>
      <point x="17" y="575" type="line" smooth="yes"/>
      <point x="17" y="561"/>
      <point x="28" y="550"/>
      <point x="42" y="550" type="curve" smooth="yes"/>
      <point x="150" y="550" type="line"/>
      <point x="150" y="25" type="line" smooth="yes"/>
      <point x="150" y="11"/>
      <point x="161" y="0"/>
      <point x="176" y="0" type="curve" smooth="yes"/>
    </contour>
    <contour>
      <point x="341" y="312" type="line"/>
      <point x="459" y="312" type="line" smooth="yes"/>
      <point x="508" y="312"/>
      <point x="542" y="284"/>
      <point x="542" y="231" type="curve" smooth="yes"/>
      <point x="542" y="188"/>
      <point x="516" y="144"/>
      <point x="459" y="144" type="curve" smooth="yes"/>
      <point x="341" y="144" type="line"/>
    </contour>
  </outline>
</glyph>
<glyph name="el-cy" format="1">
  <advance width="636"/>
  <unicode hex="043B"/>
  <outline>
    <contour>
      <point x="72" y="-10" type="line" smooth="yes"/>
      <point x="207" y="-10"/>
      <point x="287" y="61"/>
      <point x="287" y="199" type="curve" smooth="yes"/>
      <point x="287" y="384" type="line"/>
      <point x="403" y="384" type="line"/>
      <point x="403" y="25" type="line" smooth="yes"/>
      <point x="403" y="11"/>
      <point x="414" y="0"/>
      <point x="428" y="0" type="curve" smooth="yes"/>
      <point x="553" y="0" type="line" smooth="yes"/>
      <point x="568" y="0"/>
      <point x="579" y="11"/>
      <point x="579" y="25" type="curve" smooth="yes"/>
      <point x="579" y="495" type="line" smooth="yes"/>
      <point x="579" y="509"/>
      <point x="568" y="520"/>
      <point x="553" y="520" type="curve" smooth="yes"/>
      <point x="138" y="520" type="line" smooth="yes"/>
      <point x="123" y="520"/>
      <point x="112" y="509"/>
      <point x="112" y="495" type="curve" smooth="yes"/>
      <point x="112" y="203" type="line" smooth="yes"/>
      <point x="112" y="162"/>
      <point x="100" y="133"/>
      <point x="57" y="133" type="curve" smooth="yes"/>
      <point x="47" y="133" type="line" smooth="yes"/>
      <point x="33" y="133"/>
      <point x="22" y="122"/>
      <point x="22" y="107" type="curve" smooth="yes"/>
      <point x="22" y="15" type="line" smooth="yes"/>
      <point x="22" y="1"/>
      <point x="33" y="-10"/>
      <point x="47" y="-10" type="curve" smooth="yes"/>
    </contour>
  </outline>
</glyph>
<glyph name="sha-cy" format="1">
  <advance width="820"/>
  <unicode hex="0448"/>
  <outline>
    <contour>
      <point x="737" y="0" type="line" smooth="yes"/>
      <point x="752" y="0"/>
      <point x="763" y="11"/>
      <point x="763" y="25" type="curve" smooth="yes"/>
      <point x="763" y="495" type="line" smooth="yes"/>
      <point x="763" y="509"/>
      <point x="752" y="520"/>
      <point x="737" y="520" type="curve" smooth="yes"/>
      <point x="619" y="520" type="line" smooth="yes"/>
      <point x="605" y="520"/>
      <point x="594" y="509"/>
      <point x="594" y="495" type="curve" smooth="yes"/>
      <point x="594" y="136" type="line"/>
      <point x="488" y="136" type="line"/>
      <point x="488" y="495" type="line" smooth="yes"/>
      <point x="488" y="509"/>
      <point x="477" y="520"/>
      <point x="463" y="520" type="curve" smooth="yes"/>
      <point x="355" y="520" type="line" smooth="yes"/>
      <point x="340" y="520"/>
      <point x="329" y="509"/>
      <point x="329" y="495" type="curve" smooth="yes"/>
      <point x="329" y="136" type="line"/>
      <point x="223" y="136" type="line"/>
      <point x="223" y="495" type="line" smooth="yes"/>
      <point x="223" y="509"/>
      <point x="212" y="520"/>
      <point x="197" y="520" type="curve" smooth="yes"/>
      <point x="82" y="520" type="line"/>
      <point x="68" y="520"/>
      <point x="57" y="509"/>
      <point x="57" y="495" type="curve" smooth="yes"/>
      <point x="57" y="25" type="line" smooth="yes"/>
      <point x="57" y="11"/>
      <point x="68" y="0"/>
      <point x="82" y="0" type="curve" smooth="yes"/>
    </contour>
  </outline>
</glyph>
<glyph name="softsign-cy" format="1">
  <advance width="587"/>
  <unicode hex="044C"/>
  <outline>
    <contour>
      <point x="315" y="0" type="line" smooth="yes"/>
      <point x="488" y="0"/>
      <point x="563" y="93"/>
      <point x="563" y="203" type="curve" smooth="yes"/>
      <point x="563" y="324"/>
      <point x="468" y="414"/>
      <point x="320" y="414" type="curve" smooth="yes"/>
      <point x="237" y="414" type="line"/>
      <point x="237" y="495" type="line" smooth="yes"/>
      <point x="237" y="509"/>
      <point x="226" y="520"/>
      <point x="212" y="520" type="curve" smooth="yes"/>
      <point x="82" y="520" type="line" smooth="yes"/>
      <point x="68" y="520"/>
      <point x="57" y="509"/>
      <point x="57" y="495" type="curve" smooth="yes"/>
      <point x="58" y="25" type="line" smooth="yes"/>
      <point x="58" y="11"/>
      <point x="69" y="0"/>
      <point x="83" y="0" type="curve" smooth="yes"/>
    </contour>
    <contour>
      <point x="234" y="278" type="line"/>
      <point x="318" y="278" type="line" smooth="yes"/>
      <point x="375" y="278"/>
      <point x="399" y="246"/>
      <point x="399" y="206" type="curve" smooth="yes"/>
      <point x="399" y="167"/>
      <point x="377" y="137"/>
      <point x="318" y="137" type="curve" smooth="yes"/>
      <point x="234" y="137" type="line"/>
    </contour>
  </outline>
</glyph>
<glyph name="dje-cy" format="1">
  <advance width="674"/>
  <unicode hex="0452"/>
  <outline>
    <contour>
      <point x="369" y="-225" type="line" smooth="yes"/>
      <point x="531" y="-225"/>
      <point x="622" y="-148"/>
      <point x="622" y="10" type="curve" smooth="yes"/>
      <point x="622" y="290" type="line" smooth="yes"/>
      <point x="622" y="438"/>
      <point x="533" y="517"/>
      <point x="420" y="517" type="curve" smooth="yes"/>
      <point x="350" y="517"/>
      <point x="295" y="490"/>
      <point x="259" y="449" type="curve"/>
      <point x="259" y="536" type="line"/>
      <point x="326" y="536" type="line" smooth="yes"/>
      <point x="339" y="536"/>
      <point x="349" y="546"/>
      <point x="349" y="559" type="curve" smooth="yes"/>
      <point x="349" y="624" type="line" smooth="yes"/>
      <point x="349" y="637"/>
      <point x="339" y="647"/>
      <point x="326" y="647" type="curve" smooth="yes"/>
      <point x="259" y="647" type="line"/>
      <point x="259" y="685" type="line" smooth="yes"/>
      <point x="259" y="699"/>
      <point x="248" y="710"/>
      <point x="234" y="710" type="curve" smooth="yes"/>
      <point x="105" y="710" type="line" smooth="yes"/>
      <point x="91" y="710"/>
      <point x="80" y="699"/>
      <point x="80" y="685" type="curve" smooth="yes"/>
      <point x="80" y="647" type="line"/>
      <point x="16" y="647" type="line" smooth="yes"/>
      <point x="3" y="647"/>
      <point x="-7" y="637"/>
      <point x="-7" y="624" type="curve" smooth="yes"/>
      <point x="-7" y="559" type="line" smooth="yes"/>
      <point x="-7" y="546"/>
      <point x="3" y="536"/>
      <point x="16" y="536" type="curve" smooth="yes"/>
      <point x="80" y="536" type="line"/>
      <point x="80" y="25" type="line" smooth="yes"/>
      <point x="80" y="11"/>
      <point x="91" y="0"/>
      <point x="105" y="0" type="curve" smooth="yes"/>
      <point x="234" y="0" type="line" smooth="yes"/>
      <point x="248" y="0"/>
      <point x="259" y="11"/>
      <point x="259" y="25" type="curve" smooth="yes"/>
      <point x="259" y="284" type="line"/>
      <point x="259" y="344"/>
      <point x="300" y="378"/>
      <point x="353" y="378" type="curve" smooth="yes"/>
      <point x="407" y="378"/>
      <point x="444" y="344"/>
      <point x="444" y="284" type="curve" smooth="yes"/>
      <point x="444" y="17" type="line" smooth="yes"/>
      <point x="444" y="-44"/>
      <point x="431" y="-86"/>
      <point x="376" y="-86" type="curve" smooth="yes"/>
      <point x="362" y="-86" type="line" smooth="yes"/>
      <point x="347" y="-86"/>
      <point x="336" y="-97"/>
      <point x="336" y="-111" type="curve" smooth="yes"/>
      <point x="336" y="-200" type="line" smooth="yes"/>
      <point x="336" y="-214"/>
      <point x="347" y="-225"/>
      <point x="362" y="-225" type="curve" smooth="yes"/>
    </contour>
  </outline>
</glyph>
<glyph name="dzhe-cy" format="1">
  <advance width="580"/>
  <unicode hex="045F"/>
  <outline>
    <contour>
      <point x="337" y="-110" type="line" smooth="yes"/>
      <point x="351" y="-110"/>
      <point x="362" y="-102"/>
      <point x="362" y="-88" type="curve" smooth="yes"/>
      <point x="362" y="0" type="line"/>
      <point x="498" y="0" type="line" smooth="yes"/>
      <point x="512" y="0"/>
      <point x="523" y="11"/>
      <point x="523" y="25" type="curve" smooth="yes"/>
      <point x="523" y="495" type="line" smooth="yes"/>
      <point x="523" y="509"/>
      <point x="512" y="520"/>
      <point x="498" y="520" type="curve" smooth="yes"/>
      <point x="386" y="520" type="line" smooth="yes"/>
      <point x="372" y="520"/>
      <point x="361" y="509"/>
      <point x="361" y="495" type="curve" smooth="yes"/>
      <point x="361" y="143" type="line"/>
      <point x="219" y="143" type="line"/>
      <point x="219" y="495" type="line" smooth="yes"/>
      <point x="219" y="509"/>
      <point x="208" y="520"/>
      <point x="194" y="520" type="curve" smooth="yes"/>
      <point x="82" y="520" type="line" smooth="yes"/>
      <point x="68" y="520"/>
      <point x="57" y="509"/>
      <point x="57" y="495" type="curve" smooth="yes"/>
      <point x="57" y="25" type="line" smooth="yes"/>
      <point x="57" y="11"/>
      <point x="68" y="0"/>
      <point x="82" y="0" type="curve" smooth="yes"/>
      <point x="220" y="0" type="line"/>
      <point x="220" y="-85" type="line" smooth="yes"/>
      <point x="220" y="-99"/>
      <point x="231" y="-110"/>
      <point x="245" y="-110" type="curve" smooth="yes"/>
    </contour>
  </outline>
</glyph>
<glyph name="sindot-hb" format="1">
  <advance width="600"/>
  <unicode hex="05C2"/>
  <outline>
    <contour>
      <point x="64" y="506" type="line" smooth="yes"/>
      <point x="77" y="506"/>
      <point x="86" y="515"/>
      <point x="86" y="528" type="curve" smooth="yes"/>
      <point x="86" y="578" type="line" smooth="yes"/>
      <point x="86" y="591"/>
      <point x="77" y="600"/>
      <point x="64" y="600" type="curve" smooth="yes"/>
      <point x="14" y="600" type="line" smooth="yes"/>
      <point x="1" y="600"/>
      <point x="-8" y="591"/>
      <point x="-8" y="578" type="curve" smooth="yes"/>
      <point x="-8" y="528" type="line" smooth="yes"/>
      <point x="-8" y="515"/>
      <point x="1" y="506"/>
      <point x="14" y="506" type="curve" smooth="yes"/>
    </contour>
    <contour>
      <point x="-70" y="415" type="move" name="_topleft"/>
    </contour>
  </outline>
</glyph>
<glyph name="daggerdbl" format="1">
  <advance width="520"/>
  <unicode hex="2021"/>
  <outline>
    <contour>
      <point x="307" y="0" type="line" smooth="yes"/>
      <point x="322" y="0"/>
      <point x="333" y="11"/>
      <point x="333" y="25" type="curve" smooth="yes"/>
      <point x="333" y="148" type="line"/>
      <point x="446" y="148" type="line" smooth="yes"/>
      <point x="461" y="148"/>
      <point x="472" y="159"/>
      <point x="472" y="173" type="curve" smooth="yes"/>
      <point x="472" y="266" type="line" smooth="yes"/>
      <point x="472" y="280"/>
      <point x="461" y="291"/>
      <point x="446" y="291" type="curve" smooth="yes"/>
      <point x="333" y="291" type="line"/>
      <point x="333" y="421" type="line"/>
      <point x="446" y="421" type="line" smooth="yes"/>
      <point x="461" y="421"/>
      <point x="472" y="432"/>
      <point x="472" y="446" type="curve" smooth="yes"/>
      <point x="472" y="539" type="line" smooth="yes"/>
      <point x="472" y="553"/>
      <point x="461" y="564"/>
      <point x="446" y="564" type="curve" smooth="yes"/>
      <point x="333" y="564" type="line"/>
      <point x="333" y="675" type="line" smooth="yes"/>
      <point x="333" y="689"/>
      <point x="322" y="700"/>
      <point x="307" y="700" type="curve" smooth="yes"/>
      <point x="212" y="700" type="line" smooth="yes"/>
      <point x="198" y="700"/>
      <point x="187" y="689"/>
      <point x="187" y="675" type="curve" smooth="yes"/>
      <point x="187" y="564" type="line"/>
      <point x="73" y="564" type="line" smooth="yes"/>
      <point x="59" y="564"/>
      <point x="48" y="553"/>
      <point x="48" y="539" type="curve" smooth="yes"/>
      <point x="48" y="446" type="line" smooth="yes"/>
      <point x="48" y="432"/>
      <point x="59" y="421"/>
      <point x="73" y="421" type="curve" smooth="yes"/>
      <point x="187" y="421" type="line"/>
      <point x="187" y="291" type="line"/>
      <point x="73" y="291" type="line" smooth="yes"/>
      <point x="59" y="291"/>
      <point x="48" y="280"/>
      <point x="48" y="266" type="curve" smooth="yes"/>
      <point x="48" y="173" type="line" smooth="yes"/>
      <point x="48" y="159"/>
      <point x="59" y="148"/>
      <point x="73" y="148" type="curve" smooth="yes"/>
      <point x="187" y="148" type="line"/>
      <point x="187" y="25" type="line" smooth="yes"/>
      <point x="187" y="11"/>
      <point x="198" y="0"/>
      <point x="212" y="0" type="curve" smooth="yes"/>
    </contour>
  </outline>
</glyph>
<glyph name="guilsinglleft" format="1">
  <advance width="346"/>
  <unicode hex="2039"/>
  <outline>
    <contour>
      <point x="282" y="65"/>
      <point x="291" y="75"/>
      <point x="291" y="87" type="curve" smooth="yes"/>
      <point x="291" y="186" type="line" smooth="yes"/>
      <point x="291" y="207"/>
      <point x="286" y="215"/>
      <point x="273" y="228" type="curve" smooth="yes"/>
      <point x="171" y="329" type="line"/>
      <point x="273" y="430" type="line" smooth="yes"/>
      <point x="286" y="443"/>
      <point x="291" y="451"/>
      <point x="291" y="472" type="curve" smooth="yes"/>
      <point x="291" y="571" type="line" smooth="yes"/>
      <point x="291" y="583"/>
      <point x="282" y="593"/>
      <point x="270" y="593" type="curve" smooth="yes"/>
      <point x="266" y="593"/>
      <point x="259" y="591"/>
      <point x="252" y="585" type="curve" smooth="yes"/>
      <point x="45" y="384" type="line" smooth="yes"/>
      <point x="35" y="375"/>
      <point x="30" y="365"/>
      <point x="30" y="354" type="curve" smooth="yes"/>
      <point x="30" y="304" type="line" smooth="yes"/>
      <point x="30" y="293"/>
      <point x="35" y="283"/>
      <point x="45" y="274" type="curve" smooth="yes"/>
      <point x="252" y="73" type="line" smooth="yes"/>
      <point x="259" y="67"/>
      <point x="266" y="65"/>
      <point x="270" y="65" type="curve" smooth="yes"/>
    </contour>
  </outline>
</glyph>
<glyph name="oneinferior" format="1">
  <advance width="275"/>
  <unicode hex="2081"/>
  <outline>
    <contour>
      <point x="212" y="-170" type="line" smooth="yes"/>
      <point x="225" y="-170"/>
      <point x="234" y="-161"/>
      <point x="234" y="-148" type="curve" smooth="yes"/>
      <point x="234" y="158" type="line" smooth="yes"/>
      <point x="234" y="171"/>
      <point x="225" y="180"/>
      <point x="212" y="180" type="curve" smooth="yes"/>
      <point x="149" y="180" type="line" smooth="yes"/>
      <point x="139" y="180"/>
      <point x="133" y="178"/>
      <point x="126" y="173" type="curve" smooth="yes"/>
      <point x="19" y="91" type="line" smooth="yes"/>
      <point x="9" y="83"/>
      <point x="7" y="70"/>
      <point x="15" y="60" type="curve" smooth="yes"/>
      <point x="43" y="24" type="line" smooth="yes"/>
      <point x="51" y="13"/>
      <point x="65" y="12"/>
      <point x="74" y="19" type="curve" smooth="yes"/>
      <point x="125" y="57" type="line"/>
      <point x="125" y="-148" type="line" smooth="yes"/>
      <point x="125" y="-161"/>
      <point x="134" y="-170"/>
      <point x="147" y="-170" type="curve" smooth="yes"/>
    </contour>
  </outline>
</glyph>
<glyph name="threeinferior" format="1">
  <advance width="355"/>
  <unicode hex="2083"/>
  <outline>
    <contour>
      <point x="265" y="-175"/>
      <point x="327" y="-130"/>
      <point x="327" y="-62" type="curve" smooth="yes"/>
      <point x="327" y="-1"/>
      <point x="291" y="31"/>
      <point x="232" y="41" type="curve"/>
      <point x="294" y="90" type="line" smooth="yes"/>
      <point x="306" y="99"/>
      <point x="308" y="106"/>
      <point x="308" y="117" type="curve" smooth="yes"/>
      <point x="308" y="158" type="line" smooth="yes"/>
      <point x="308" y="171"/>
      <point x="299" y="180"/>
      <point x="286" y="180" type="curve" smooth="yes"/>
      <point x="61" y="180" type="line" smooth="yes"/>
      <point x="48" y="180"/>
      <point x="39" y="171"/>
      <point x="39" y="158" type="curve"/>
      <point x="39" y="111" type="line" smooth="yes"/>
      <point x="39" y="98"/>
      <point x="48" y="89"/>
      <point x="61" y="89" type="curve" smooth="yes"/>
      <point x="171" y="89" type="line"/>
      <point x="115" y="36" type="line" smooth="yes"/>
      <point x="108" y="29"/>
      <point x="104" y="24"/>
      <point x="104" y="15" type="curve" smooth="yes"/>
      <point x="104" y="-10" type="line" smooth="yes"/>
      <point x="104" y="-22"/>
      <point x="112" y="-31"/>
      <point x="125" y="-31" type="curve" smooth="yes"/>
      <point x="171" y="-31" type="line" smooth="yes"/>
      <point x="198" y="-31"/>
      <point x="215" y="-37"/>
      <point x="215" y="-59" type="curve" smooth="yes"/>
      <point x="215" y="-78"/>
      <point x="198" y="-90"/>
      <point x="169" y="-90" type="curve" smooth="yes"/>
      <point x="129" y="-90"/>
      <point x="130" y="-74"/>
      <point x="114" y="-69" type="curve" smooth="yes"/>
      <point x="103" y="-67"/>
      <point x="91" y="-65"/>
      <point x="80" y="-65" type="curve"/>
      <point x="39" y="-65" type="line" smooth="yes"/>
      <point x="33" y="-65"/>
      <point x="21" y="-71"/>
      <point x="22" y="-84" type="curve" smooth="yes"/>
      <point x="25" y="-120"/>
      <point x="62" y="-175"/>
      <point x="173" y="-175" type="curve" smooth="yes"/>
    </contour>
  </outline>
</glyph>
<glyph name="fiveinferior" format="1">
  <advance width="352"/>
  <unicode hex="2085"/>
  <outline>
    <contour>
      <point x="274" y="-175"/>
      <point x="325" y="-116"/>
      <point x="325" y="-53" type="curve" smooth="yes"/>
      <point x="325" y="15"/>
      <point x="270" y="57"/>
      <point x="202" y="57" type="curve" smooth="yes"/>
      <point x="168" y="57"/>
      <point x="152" y="51"/>
      <point x="137" y="42" type="curve"/>
      <point x="143" y="89" type="line"/>
      <point x="281" y="89" type="line" smooth="yes"/>
      <point x="294" y="89"/>
      <point x="303" y="98"/>
      <point x="303" y="111" type="curve" smooth="yes"/>
      <point x="303" y="158" type="line" smooth="yes"/>
      <point x="303" y="171"/>
      <point x="294" y="180"/>
      <point x="281" y="180" type="curve" smooth="yes"/>
      <point x="84" y="180" type="line"/>
      <point x="70" y="179"/>
      <point x="60" y="167"/>
      <point x="59" y="153" type="curve" smooth="yes"/>
      <point x="43" y="2" type="line" smooth="yes"/>
      <point x="41" y="-12"/>
      <point x="51" y="-24"/>
      <point x="65" y="-24" type="curve" smooth="yes"/>
      <point x="134" y="-24" type="line" smooth="yes"/>
      <point x="146" y="-24"/>
      <point x="147" y="-9"/>
      <point x="177" y="-9" type="curve" smooth="yes"/>
      <point x="202" y="-9"/>
      <point x="217" y="-28"/>
      <point x="217" y="-49" type="curve" smooth="yes"/>
      <point x="217" y="-73"/>
      <point x="200" y="-88"/>
      <point x="175" y="-88" type="curve" smooth="yes"/>
      <point x="138" y="-88"/>
      <point x="138" y="-70"/>
      <point x="121" y="-64" type="curve"/>
      <point x="115" y="-62"/>
      <point x="106" y="-60"/>
      <point x="98" y="-60" type="curve"/>
      <point x="42" y="-60" type="line" smooth="yes"/>
      <point x="36" y="-60"/>
      <point x="24" y="-66"/>
      <point x="25" y="-79" type="curve" smooth="yes"/>
      <point x="28" y="-114"/>
      <point x="63" y="-175"/>
      <point x="175" y="-175" type="curve" smooth="yes"/>
    </contour>
  </outline>
</glyph>
<glyph name="eightinferior" format="1">
  <advance width="360"/>
  <unicode hex="2088"/>
  <outline>
    <contour>
      <point x="283" y="-175"/>
      <point x="331" y="-124"/>
      <point x="331" y="-66" type="curve" smooth="yes"/>
      <point x="331" y="-32"/>
      <point x="314" y="-2"/>
      <point x="286" y="14" type="curve"/>
      <point x="307" y="28"/>
      <point x="318" y="52"/>
      <point x="318" y="81" type="curve" smooth="yes"/>
      <point x="318" y="134"/>
      <point x="278" y="185"/>
      <point x="179" y="185" type="curve" smooth="yes"/>
      <point x="79" y="185"/>
      <point x="39" y="134"/>
      <point x="39" y="81" type="curve" smooth="yes"/>
      <point x="39" y="51"/>
      <point x="52" y="27"/>
      <point x="73" y="14" type="curve"/>
      <point x="45" y="-3"/>
      <point x="28" y="-30"/>
      <point x="28" y="-64" type="curve" smooth="yes"/>
      <point x="28" y="-123"/>
      <point x="74" y="-175"/>
      <point x="179" y="-175" type="curve" smooth="yes"/>
    </contour>
    <contour>
      <point x="155" y="-99"/>
      <point x="132" y="-87"/>
      <point x="132" y="-64" type="curve" smooth="yes"/>
      <point x="132" y="-41"/>
      <point x="154" y="-29"/>
      <point x="179" y="-29" type="curve" smooth="yes"/>
      <point x="203" y="-29"/>
      <point x="225" y="-41"/>
      <point x="225" y="-64" type="curve" smooth="yes"/>
      <point x="225" y="-87"/>
      <point x="202" y="-99"/>
      <point x="179" y="-99" type="curve" smooth="yes"/>
    </contour>
    <contour>
      <point x="154" y="45"/>
      <point x="138" y="56"/>
      <point x="138" y="76" type="curve" smooth="yes"/>
      <point x="138" y="95"/>
      <point x="155" y="107"/>
      <point x="179" y="107" type="curve" smooth="yes"/>
      <point x="203" y="107"/>
      <point x="221" y="95"/>
      <point x="221" y="76" type="curve" smooth="yes"/>
      <point x="221" y="56"/>
      <point x="203" y="45"/>
      <point x="179" y="45" type="curve" smooth="yes"/>
    </contour>
  </outline>
</glyph>
<glyph name="numero" format="1">
  <advance width="1228"/>
  <unicode hex="2116"/>
  <outline>
    <contour>
      <point x="216" y="0" type="line" smooth="yes"/>
      <point x="231" y="0"/>
      <point x="242" y="11"/>
      <point x="242" y="25" type="curve" smooth="yes"/>
      <point x="242" y="357" type="line"/>
      <point x="436" y="19" type="line" smooth="yes"/>
      <point x="439" y="14"/>
      <point x="448" y="0"/>
      <point x="471" y="0" type="curve" smooth="yes"/>
      <point x="584" y="0" type="line" smooth="yes"/>
      <point x="598" y="0"/>
      <point x="609" y="11"/>
      <point x="609" y="26" type="curve" smooth="yes"/>
      <point x="609" y="674" type="line" smooth="yes"/>
      <point x="609" y="689"/>
      <point x="598" y="700"/>
      <point x="584" y="700" type="curve" smooth="yes"/>
      <point x="457" y="700" type="line" smooth="yes"/>
      <point x="443" y="700"/>
      <point x="432" y="689"/>
      <point x="432" y="674" type="curve" smooth="yes"/>
      <point x="432" y="327" type="line"/>
      <point x="237" y="681" type="line" smooth="yes"/>
      <point x="234" y="687"/>
      <point x="225" y="700"/>
      <point x="203" y="700" type="curve" smooth="yes"/>
      <point x="89" y="700" type="line" smooth="yes"/>
      <point x="75" y="700"/>
      <point x="64" y="689"/>
      <point x="64" y="674" type="curve" smooth="yes"/>
      <point x="64" y="25" type="line" smooth="yes"/>
      <point x="64" y="11"/>
      <point x="75" y="0"/>
      <point x="89" y="0" type="curve" smooth="yes"/>
    </contour>
    <contour>
      <point x="1156" y="0" type="line" smooth="yes"/>
      <point x="1170" y="0"/>
      <point x="1181" y="11"/>
      <point x="1181" y="25" type="curve" smooth="yes"/>
      <point x="1181" y="59" type="line" smooth="yes"/>
      <point x="1181" y="74"/>
      <point x="1170" y="85"/>
      <point x="1156" y="85" type="curve" smooth="yes"/>
      <point x="685" y="85" type="line" smooth="yes"/>
      <point x="671" y="85"/>
      <point x="660" y="74"/>
      <point x="660" y="59" type="curve" smooth="yes"/>
      <point x="660" y="25" type="line" smooth="yes"/>
      <point x="660" y="11"/>
      <point x="671" y="0"/>
      <point x="685" y="0" type="curve" smooth="yes"/>
    </contour>
    <contour>
      <point x="1081" y="115"/>
      <point x="1181" y="196"/>
      <point x="1181" y="365" type="curve" smooth="yes"/>
      <point x="1181" y="534"/>
      <point x="1074" y="614"/>
      <point x="921" y="614" type="curve" smooth="yes"/>
      <point x="767" y="614"/>
      <point x="660" y="534"/>
      <point x="660" y="365" type="curve" smooth="yes"/>
      <point x="660" y="196"/>
      <point x="760" y="115"/>
      <point x="921" y="115" type="curve" smooth="yes"/>
    </contour>
    <contour>
      <point x="870" y="241"/>
      <point x="843" y="276"/>
      <point x="843" y="365" type="curve" smooth="yes"/>
      <point x="843" y="451"/>
      <point x="870" y="488"/>
      <point x="920" y="488" type="curve" smooth="yes"/>
      <point x="970" y="488"/>
      <point x="997" y="451"/>
      <point x="997" y="365" type="curve" smooth="yes"/>
      <point x="997" y="278"/>
      <point x="970" y="241"/>
      <point x="920" y="241" type="curve" smooth="yes"/>
    </contour>
  </outline>
</glyph>
<glyph name="trademark" format="1">
  <advance width="648"/>
  <unicode hex="2122"/>
  <outline>
    <contour>
      <point x="364" y="434" type="line" smooth="yes"/>
      <point x="377" y="434"/>
      <point x="386" y="443"/>
      <point x="386" y="456" type="curve" smooth="yes"/>
      <point x="386" y="552" type="line"/>
      <point x="407" y="518" type="line" smooth="yes"/>
      <point x="414" y="507"/>
      <point x="419" y="498"/>
      <point x="433" y="498" type="curve" smooth="yes"/>
      <point x="454" y="498" type="line" smooth="yes"/>
      <point x="468" y="498"/>
      <point x="473" y="507"/>
      <point x="480" y="518" type="curve" smooth="yes"/>
      <point x="501" y="552" type="line"/>
      <point x="501" y="456" type="line" smooth="yes"/>
      <point x="501" y="443"/>
      <point x="510" y="434"/>
      <point x="523" y="434" type="curve" smooth="yes"/>
      <point x="564" y="434" type="line" smooth="yes"/>
      <point x="577" y="434"/>
      <point x="586" y="443"/>
      <point x="586" y="456" type="curve" smooth="yes"/>
      <point x="586" y="678" type="line" smooth="yes"/>
      <point x="586" y="691"/>
      <point x="577" y="700"/>
      <point x="564" y="700" type="curve" smooth="yes"/>
      <point x="525" y="700" type="line" smooth="yes"/>
      <point x="510" y="700"/>
      <point x="502" y="688"/>
      <point x="495" y="678" type="curve" smooth="yes"/>
      <point x="443" y="594" type="line"/>
      <point x="391" y="678" type="line" smooth="yes"/>
      <point x="385" y="688"/>
      <point x="377" y="700"/>
      <point x="362" y="700" type="curve" smooth="yes"/>
      <point x="323" y="700" type="line" smooth="yes"/>
      <point x="310" y="700"/>
      <point x="301" y="691"/>
      <point x="301" y="678" type="curve" smooth="yes"/>
      <point x="301" y="456" type="line" smooth="yes"/>
      <point x="301" y="443"/>
      <point x="310" y="434"/>
      <point x="323" y="434" type="curve" smooth="yes"/>
    </contour>
    <contour>
      <point x="176" y="434" type="line" smooth="yes"/>
      <point x="189" y="434"/>
      <point x="198" y="443"/>
      <point x="198" y="456" type="curve" smooth="yes"/>
      <point x="198" y="617" type="line"/>
      <point x="250" y="617" type="line" smooth="yes"/>
      <point x="263" y="617"/>
      <point x="272" y="626"/>
      <point x="272" y="639" type="curve" smooth="yes"/>
      <point x="272" y="678" type="line" smooth="yes"/>
      <point x="272" y="691"/>
      <point x="263" y="700"/>
      <point x="250" y="700" type="curve" smooth="yes"/>
      <point x="61" y="700" type="line" smooth="yes"/>
      <point x="48" y="700"/>
      <point x="39" y="691"/>
      <point x="39" y="678" type="curve"/>
      <point x="39" y="639" type="line" smooth="yes"/>
      <point x="39" y="626"/>
      <point x="48" y="617"/>
      <point x="61" y="617" type="curve" smooth="yes"/>
      <point x="113" y="617" type="line"/>
      <point x="113" y="456" type="line" smooth="yes"/>
      <point x="113" y="443"/>
      <point x="122" y="434"/>
      <point x="135" y="434" type="curve" smooth="yes"/>
    </contour>
  </outline>
</glyph>
<glyph name="estimated" format="1">
  <advance width="656"/>
  <unicode hex="212E"/>
  <outline>
    <contour>
      <point x="519" y="-10"/>
      <point x="599" y="79"/>
      <point x="600" y="145" type="curve" smooth="yes"/>
      <point x="601" y="159"/>
      <point x="591" y="169"/>
      <point x="577" y="169" type="curve" smooth="yes"/>
      <point x="448" y="169" type="line" smooth="yes"/>
      <point x="431" y="169"/>
      <point x="425" y="167"/>
      <point x="414" y="153" type="curve" smooth="yes"/>
      <point x="400" y="128"/>
      <point x="373" y="113"/>
      <point x="331" y="113" type="curve" smooth="yes"/>
      <point x="276" y="113"/>
      <point x="237" y="154"/>
      <point x="236" y="230" type="curve" smooth="yes"/>
      <point x="236" y="241" type="line"/>
      <point x="588" y="241" type="line" smooth="yes"/>
      <point x="603" y="241"/>
      <point x="615" y="254"/>
      <point x="615" y="271" type="curve" smooth="yes"/>
      <point x="615" y="316" type="line" smooth="yes"/>
      <point x="615" y="492"/>
      <point x="516" y="610"/>
      <point x="332" y="610" type="curve" smooth="yes"/>
      <point x="166" y="610"/>
      <point x="58" y="506"/>
      <point x="49" y="335" type="curve" smooth="yes"/>
      <point x="48" y="322"/>
      <point x="48" y="285"/>
      <point x="49" y="271" type="curve" smooth="yes"/>
      <point x="58" y="91"/>
      <point x="159" y="-10"/>
      <point x="333" y="-10" type="curve" smooth="yes"/>
    </contour>
    <contour>
      <point x="235" y="367" type="line" smooth="yes"/>
      <point x="237" y="449"/>
      <point x="275" y="491"/>
      <point x="331" y="491" type="curve" smooth="yes"/>
      <point x="386" y="491"/>
      <point x="428" y="456"/>
      <point x="428" y="367" type="curve" smooth="yes"/>
      <point x="428" y="363" type="line"/>
      <point x="235" y="363" type="line"/>
    </contour>
  </outline>
</glyph>
<glyph name="increment" format="1">
  <advance width="700"/>
  <unicode hex="2206"/>
  <outline>
    <contour>
      <point x="647" y="0" type="line" smooth="yes"/>
      <point x="662" y="0"/>
      <point x="674" y="12"/>
      <point x="674" y="27" type="curve" smooth="yes"/>
      <point x="674" y="62" type="line" smooth="yes"/>
      <point x="674" y="77"/>
      <point x="671" y="82"/>
      <point x="668" y="90" type="curve" smooth="yes"/>
      <point x="450" y="627" type="line" smooth="yes"/>
      <point x="444" y="641"/>
      <point x="432" y="660"/>
      <point x="405" y="660" type="curve" smooth="yes"/>
      <point x="295" y="660" type="line" smooth="yes"/>
      <point x="268" y="660"/>
      <point x="256" y="641"/>
      <point x="250" y="627" type="curve" smooth="yes"/>
      <point x="32" y="90" type="line" smooth="yes"/>
      <point x="29" y="82"/>
      <point x="26" y="77"/>
      <point x="26" y="62" type="curve" smooth="yes"/>
      <point x="26" y="27" type="line" smooth="yes"/>
      <point x="26" y="12"/>
      <point x="38" y="0"/>
      <point x="53" y="0" type="curve" smooth="yes"/>
    </contour>
    <contour>
      <point x="350" y="508" type="line"/>
      <point x="492" y="135" type="line"/>
      <point x="209" y="135" type="line"/>
    </contour>
  </outline>
</glyph>
<glyph name="minus" format="1">
  <advance width="645"/>
  <unicode hex="2212"/>
  <outline>
    <contour>
      <point x="559" y="236" type="line" smooth="yes"/>
      <point x="574" y="236"/>
      <point x="585" y="247"/>
      <point x="585" y="262" type="curve" smooth="yes"/>
      <point x="585" y="339" type="line" smooth="yes"/>
      <point x="585" y="353"/>
      <point x="574" y="364"/>
      <point x="559" y="364" type="curve" smooth="yes"/>
      <point x="85" y="364" type="line" smooth="yes"/>
      <point x="71" y="364"/>
      <point x="60" y="353"/>
      <point x="60" y="339" type="curve" smooth="yes"/>
      <point x="60" y="262" type="line" smooth="yes"/>
      <point x="60" y="247"/>
      <point x="71" y="236"/>
      <point x="85" y="236" type="curve" smooth="yes"/>
    </contour>
  </outline>
</glyph>
<glyph name="radical" format="1">
  <advance width="745"/>
  <unicode hex="221A"/>
  <outline>
    <contour>
      <point x="318" y="0" type="line" smooth="yes"/>
      <point x="336" y="0"/>
      <point x="344" y="10"/>
      <point x="349" y="25" type="curve" smooth="yes"/>
      <point x="567" y="734" type="line"/>
      <point x="704" y="734" type="line" smooth="yes"/>
      <point x="718" y="734"/>
      <point x="729" y="745"/>
      <point x="729" y="759" type="curve" smooth="yes"/>
      <point x="729" y="835" type="line" smooth="yes"/>
      <point x="729" y="849"/>
      <point x="718" y="860"/>
      <point x="704" y="860" type="curve" smooth="yes"/>
      <point x="477" y="860" type="line" smooth="yes"/>
      <point x="459" y="860"/>
      <point x="450" y="847"/>
      <point x="446" y="836" type="curve"/>
      <point x="263" y="200" type="line"/>
      <point x="162" y="499" type="line" smooth="yes"/>
      <point x="158" y="508"/>
      <point x="150" y="520"/>
      <point x="132" y="520" type="curve" smooth="yes"/>
      <point x="40" y="520" type="line" smooth="yes"/>
      <point x="27" y="520"/>
      <point x="17" y="510"/>
      <point x="17" y="497" type="curve" smooth="yes"/>
      <point x="17" y="495"/>
      <point x="17" y="492"/>
      <point x="18" y="489" type="curve"/>
      <point x="179" y="22" type="line"/>
      <point x="184" y="10"/>
      <point x="191" y="0"/>
      <point x="209" y="0" type="curve" smooth="yes"/>
    </contour>
  </outline>
</glyph>
<glyph name="integral" format="1">
  <advance width="446"/>
  <unicode hex="222B"/>
  <outline>
    <contour>
      <point x="95" y="-225" type="line" smooth="yes"/>
      <point x="216" y="-225"/>
      <point x="293" y="-148"/>
      <point x="293" y="-30" type="curve" smooth="yes"/>
      <point x="293" y="505" type="line" smooth="yes"/>
      <point x="293" y="556"/>
      <point x="315" y="584"/>
      <point x="365" y="584" type="curve" smooth="yes"/>
      <point x="403" y="584" type="line" smooth="yes"/>
      <point x="418" y="584"/>
      <point x="429" y="595"/>
      <point x="429" y="609" type="curve" smooth="yes"/>
      <point x="429" y="688" type="line" smooth="yes"/>
      <point x="429" y="702"/>
      <point x="418" y="713"/>
      <point x="403" y="713" type="curve" smooth="yes"/>
      <point x="352" y="713" type="line" smooth="yes"/>
      <point x="231" y="713"/>
      <point x="154" y="637"/>
      <point x="154" y="520" type="curve" smooth="yes"/>
      <point x="154" y="-17" type="line"/>
      <point x="154" y="-65"/>
      <point x="135" y="-96"/>
      <point x="82" y="-96" type="curve" smooth="yes"/>
      <point x="43" y="-96" type="line" smooth="yes"/>
      <point x="29" y="-96"/>
      <point x="18" y="-107"/>
      <point x="18" y="-121" type="curve" smooth="yes"/>
      <point x="18" y="-200" type="line" smooth="yes"/>
      <point x="18" y="-214"/>
      <point x="29" y="-225"/>
      <point x="43" y="-225" type="curve" smooth="yes"/>
    </contour>
  </outline>
</glyph>
<glyph name="lessequal" format="1">
  <advance width="546"/>
  <unicode hex="2264"/>
  <outline>
    <contour>
      <point x="473" y="194"/>
      <point x="482" y="202"/>
      <point x="482" y="215" type="curve" smooth="yes"/>
      <point x="482" y="301" type="line" smooth="yes"/>
      <point x="482" y="323"/>
      <point x="468" y="334"/>
      <point x="454" y="340" type="curve" smooth="yes"/>
      <point x="241" y="427" type="line"/>
      <point x="454" y="513" type="line" smooth="yes"/>
      <point x="468" y="518"/>
      <point x="482" y="530"/>
      <point x="482" y="553" type="curve" smooth="yes"/>
      <point x="482" y="639" type="line" smooth="yes"/>
      <point x="482" y="651"/>
      <point x="473" y="659"/>
      <point x="461" y="659" type="curve" smooth="yes"/>
      <point x="457" y="659"/>
      <point x="451" y="657"/>
      <point x="445" y="654" type="curve" smooth="yes"/>
      <point x="80" y="486" type="line" smooth="yes"/>
      <point x="60" y="476"/>
      <point x="51" y="464"/>
      <point x="51" y="444" type="curve"/>
      <point x="51" y="409" type="line" smooth="yes"/>
      <point x="51" y="389"/>
      <point x="60" y="378"/>
      <point x="80" y="368" type="curve" smooth="yes"/>
      <point x="445" y="199" type="line" smooth="yes"/>
      <point x="451" y="196"/>
      <point x="457" y="194"/>
      <point x="461" y="194" type="curve" smooth="yes"/>
    </contour>
    <contour>
      <point x="457" y="0" type="line" smooth="yes"/>
      <point x="471" y="0"/>
      <point x="482" y="11"/>
      <point x="482" y="25" type="curve" smooth="yes"/>
      <point x="482" y="103" type="line" smooth="yes"/>
      <point x="482" y="117"/>
      <point x="471" y="128"/>
      <point x="457" y="128" type="curve"/>
      <point x="76" y="128" type="line" smooth="yes"/>
      <point x="62" y="128"/>
      <point x="51" y="117"/>
      <point x="51" y="103" type="curve" smooth="yes"/>
      <point x="51" y="25" type="line" smooth="yes"/>
      <point x="51" y="11"/>
      <point x="62" y="0"/>
      <point x="76" y="0" type="curve" smooth="yes"/>
    </contour>
  </outline>
</glyph>
<glyph name="lozenge" format="1">
  <advance width="593"/>
  <unicode hex="25CA"/>
  <outline>
    <contour>
      <point x="328" y="0" type="line" smooth="yes"/>
      <point x="355" y="0"/>
      <point x="370" y="20"/>
      <point x="378" y="33" type="curve" smooth="yes"/>
      <point x="554" y="331" type="line" smooth="yes"/>
      <point x="559" y="339"/>
      <point x="562" y="347"/>
      <point x="562" y="355" type="curve" smooth="yes"/>
      <point x="562" y="363"/>
      <point x="559" y="371"/>
      <point x="554" y="379" type="curve" smooth="yes"/>
      <point x="378" y="677" type="line" smooth="yes"/>
      <point x="370" y="690"/>
      <point x="355" y="710"/>
      <point x="328" y="710" type="curve" smooth="yes"/>
      <point x="266" y="710" type="line" smooth="yes"/>
      <point x="239" y="710"/>
      <point x="224" y="690"/>
      <point x="216" y="677" type="curve" smooth="yes"/>
      <point x="40" y="379" type="line" smooth="yes"/>
      <point x="35" y="371"/>
      <point x="32" y="363"/>
      <point x="32" y="355" type="curve" smooth="yes"/>
      <point x="32" y="347"/>
      <point x="35" y="339"/>
      <point x="40" y="331" type="curve" smooth="yes"/>
      <point x="216" y="33" type="line" smooth="yes"/>
      <point x="224" y="20"/>
      <point x="239" y="0"/>
      <point x="266" y="0" type="curve" smooth="yes"/>
    </contour>
    <contour>
      <point x="182" y="355" type="line"/>
      <point x="297" y="555" type="line"/>
      <point x="412" y="355" type="line"/>
      <point x="297" y="155" type="line"/>
    </contour>
  </outline>
</glyph>
<glyph name="Acute" format="1">
  <advance width="412"/>
  <unicode hex="F6C9"/>
  <outline>
    <contour>
      <point x="176" y="750" type="line" smooth="yes"/>
      <point x="194" y="750"/>
      <point x="203" y="756"/>
      <point x="214" y="765" type="curve" smooth="yes"/>
      <point x="349" y="875" type="line" smooth="yes"/>
      <point x="352" y="878"/>
      <point x="354" y="882"/>
      <point x="354" y="887" type="curve" smooth="yes"/>
      <point x="354" y="899"/>
      <point x="347" y="907"/>
      <point x="335" y="907" type="curve" smooth="yes"/>
      <point x="189" y="907" type="line" smooth="yes"/>
      <point x="172" y="907"/>
      <point x="165" y="904"/>
      <point x="152" y="888" type="curve"/>
      <point x="62" y="779" type="line" smooth="yes"/>
      <point x="59" y="776"/>
      <point x="57" y="771"/>
      <point x="57" y="766" type="curve" smooth="yes"/>
      <point x="57" y="756"/>
      <point x="63" y="750"/>
      <point x="73" y="750" type="curve" smooth="yes"/>
    </contour>
  </outline>
</glyph>
<glyph name="Grave" format="1">
  <advance width="410"/>
  <unicode hex="F6CE"/>
  <outline>
    <contour>
      <point x="338" y="750" type="line" smooth="yes"/>
      <point x="348" y="750"/>
      <point x="354" y="756"/>
      <point x="354" y="766" type="curve" smooth="yes"/>
      <point x="354" y="771"/>
      <point x="352" y="776"/>
      <point x="349" y="779" type="curve" smooth="yes"/>
      <point x="259" y="888" type="line"/>
      <point x="245" y="904"/>
      <point x="239" y="907"/>
      <point x="222" y="907" type="curve" smooth="yes"/>
      <point x="76" y="907" type="line" smooth="yes"/>
      <point x="64" y="907"/>
      <point x="57" y="899"/>
      <point x="57" y="887" type="curve" smooth="yes"/>
      <point x="57" y="882"/>
      <point x="59" y="878"/>
      <point x="62" y="875" type="curve" smooth="yes"/>
      <point x="196" y="765" type="line" smooth="yes"/>
      <point x="207" y="756"/>
      <point x="216" y="750"/>
      <point x="235" y="750" type="curve" smooth="yes"/>
    </contour>
  </outline>
</glyph>
<glyph name="Hungarumlaut" format="1">
  <advance width="573"/>
  <unicode hex="F6CF"/>
  <outline>
    <contour>
      <point x="359" y="750" type="line" smooth="yes"/>
      <point x="372" y="750"/>
      <point x="383" y="755"/>
      <point x="391" y="764" type="curve" smooth="yes"/>
      <point x="491" y="875" type="line" smooth="yes"/>
      <point x="494" y="878"/>
      <point x="497" y="883"/>
      <point x="497" y="888" type="curve" smooth="yes"/>
      <point x="497" y="900"/>
      <point x="489" y="907"/>
      <point x="477" y="907" type="curve" smooth="yes"/>
      <point x="359" y="907" type="line" smooth="yes"/>
      <point x="338" y="907"/>
      <point x="328" y="901"/>
      <point x="322" y="888" type="curve" smooth="yes"/>
      <point x="274" y="781" type="line" smooth="yes"/>
      <point x="272" y="777"/>
      <point x="269" y="771"/>
      <point x="269" y="766" type="curve" smooth="yes"/>
      <point x="269" y="756"/>
      <point x="275" y="750"/>
      <point x="285" y="750" type="curve" smooth="yes"/>
    </contour>
    <contour>
      <point x="147" y="750" type="line" smooth="yes"/>
      <point x="160" y="750"/>
      <point x="171" y="755"/>
      <point x="179" y="764" type="curve" smooth="yes"/>
      <point x="279" y="875" type="line" smooth="yes"/>
      <point x="282" y="878"/>
      <point x="285" y="883"/>
      <point x="285" y="888" type="curve" smooth="yes"/>
      <point x="285" y="900"/>
      <point x="277" y="907"/>
      <point x="265" y="907" type="curve" smooth="yes"/>
      <point x="147" y="907" type="line" smooth="yes"/>
      <point x="126" y="907"/>
      <point x="116" y="901"/>
      <point x="110" y="888" type="curve" smooth="yes"/>
      <point x="62" y="781" type="line" smooth="yes"/>
      <point x="60" y="777"/>
      <point x="57" y="771"/>
      <point x="57" y="766" type="curve" smooth="yes"/>
      <point x="57" y="756"/>
      <point x="63" y="750"/>
      <point x="73" y="750" type="curve" smooth="yes"/>
    </contour>
  </outline>
</glyph>
<glyph name="fi" format="1">
  <advance width="688"/>
  <unicode hex="FB01"/>
  <outline>
    <contour>
      <point x="265" y="0" type="line" smooth="yes"/>
      <point x="279" y="0"/>
      <point x="290" y="11"/>
      <point x="290" y="25" type="curve" smooth="yes"/>
      <point x="290" y="384" type="line"/>
      <point x="458" y="384" type="line"/>
      <point x="458" y="25" type="line" smooth="yes"/>
      <point x="458" y="11"/>
      <point x="469" y="0"/>
      <point x="483" y="0" type="curve" smooth="yes"/>
      <point x="606" y="0" type="line" smooth="yes"/>
      <point x="620" y="0"/>
      <point x="631" y="11"/>
      <point x="631" y="25" type="curve" smooth="yes"/>
      <point x="631" y="495" type="line" smooth="yes"/>
      <point x="631" y="509"/>
      <point x="620" y="520"/>
      <point x="606" y="520" type="curve" smooth="yes"/>
      <point x="290" y="520" type="line"/>
      <point x="290" y="545" type="line" smooth="yes"/>
      <point x="290" y="583"/>
      <point x="305" y="604"/>
      <point x="349" y="604" type="curve" smooth="yes"/>
      <point x="606" y="604" type="line" smooth="yes"/>
      <point x="620" y="604"/>
      <point x="631" y="615"/>
      <point x="631" y="629" type="curve" smooth="yes"/>
      <point x="631" y="715" type="line" smooth="yes"/>
      <point x="631" y="729"/>
      <point x="620" y="740"/>
      <point x="606" y="740" type="curve" smooth="yes"/>
      <point x="341" y="740" type="line" smooth="yes"/>
      <point x="203" y="740"/>
      <point x="117" y="689"/>
      <point x="117" y="550" type="curve" smooth="yes"/>
      <point x="117" y="520" type="line"/>
      <point x="41" y="520" type="line" smooth="yes"/>
      <point x="27" y="520"/>
      <point x="16" y="509"/>
      <point x="16" y="495" type="curve" smooth="yes"/>
      <point x="16" y="409" type="line" smooth="yes"/>
      <point x="16" y="395"/>
      <point x="27" y="384"/>
      <point x="41" y="384" type="curve" smooth="yes"/>
      <point x="117" y="384" type="line"/>
      <point x="117" y="25" type="line" smooth="yes"/>
      <point x="117" y="11"/>
      <point x="128" y="0"/>
      <point x="142" y="0" type="curve" smooth="yes"/>
    </contour>
  </outline>
</glyph>
<glyph name="Breve" format="1">
  <advance width="426"/>
  <outline>
    <contour>
      <point x="324" y="743"/>
      <point x="370" y="807"/>
      <point x="370" y="886" type="curve" smooth="yes"/>
      <point x="370" y="896"/>
      <point x="363" y="905"/>
      <point x="351" y="905" type="curve" smooth="yes"/>
      <point x="280" y="905" type="line" smooth="yes"/>
      <point x="268" y="905"/>
      <point x="261" y="896"/>
      <point x="261" y="886" type="curve" smooth="yes"/>
      <point x="261" y="855"/>
      <point x="251" y="827"/>
      <point x="213" y="827" type="curve" smooth="yes"/>
      <point x="176" y="827"/>
      <point x="166" y="855"/>
      <point x="166" y="886" type="curve" smooth="yes"/>
      <point x="166" y="896"/>
      <point x="159" y="905"/>
      <point x="147" y="905" type="curve" smooth="yes"/>
      <point x="76" y="905" type="line" smooth="yes"/>
      <point x="64" y="905"/>
      <point x="57" y="896"/>
      <point x="57" y="886" type="curve" smooth="yes"/>
      <point x="57" y="807"/>
      <point x="103" y="743"/>
      <point x="213" y="743" type="curve" smooth="yes"/>
    </contour>
  </outline>
</glyph>
<glyph name="Tilde" format="1">
  <advance width="481"/>
  <outline>
    <contour>
      <point x="382" y="745"/>
      <point x="411" y="832"/>
      <point x="411" y="875" type="curve" smooth="yes"/>
      <point x="411" y="885"/>
      <point x="405" y="893"/>
      <point x="393" y="893" type="curve" smooth="yes"/>
      <point x="331" y="893" type="line" smooth="yes"/>
      <point x="309" y="893"/>
      <point x="312" y="863"/>
      <point x="284" y="863" type="curve" smooth="yes"/>
      <point x="248" y="863"/>
      <point x="228" y="898"/>
      <point x="172" y="898" type="curve" smooth="yes"/>
      <point x="85" y="898"/>
      <point x="57" y="811"/>
      <point x="57" y="767" type="curve" smooth="yes"/>
      <point x="57" y="758"/>
      <point x="65" y="750"/>
      <point x="75" y="750" type="curve" smooth="yes"/>
      <point x="138" y="750" type="line" smooth="yes"/>
      <point x="159" y="750"/>
      <point x="156" y="780"/>
      <point x="185" y="780" type="curve" smooth="yes"/>
      <point x="220" y="780"/>
      <point x="240" y="745"/>
      <point x="296" y="745" type="curve" smooth="yes"/>
    </contour>
  </outline>
</glyph>
<glyph name="bracketleft.cap" format="1">
  <advance width="407"/>
  <outline>
    <contour>
      <point x="343" y="-117" type="line" smooth="yes"/>
      <point x="357" y="-117"/>
      <point x="368" y="-106"/>
      <point x="368" y="-92" type="curve" smooth="yes"/>
      <point x="368" y="11" type="line" smooth="yes"/>
      <point x="368" y="25"/>
      <point x="357" y="36"/>
      <point x="343" y="36" type="curve" smooth="yes"/>
      <point x="226" y="36" type="line"/>
      <point x="226" y="677" type="line"/>
      <point x="343" y="677" type="line" smooth="yes"/>
      <point x="357" y="677"/>
      <point x="368" y="688"/>
      <point x="368" y="702" type="curve" smooth="yes"/>
      <point x="368" y="793" type="line" smooth="yes"/>
      <point x="368" y="807"/>
      <point x="357" y="818"/>
      <point x="343" y="818" type="curve" smooth="yes"/>
      <point x="90" y="818" type="line" smooth="yes"/>
      <point x="76" y="818"/>
      <point x="65" y="807"/>
      <point x="65" y="793" type="curve" smooth="yes"/>
      <point x="65" y="-92" type="line" smooth="yes"/>
      <point x="65" y="-106"/>
      <point x="76" y="-117"/>
      <point x="90" y="-117" type="curve" smooth="yes"/>
    </contour>
  </outline>
</glyph>
<glyph name="bracketright.cap" format="1">
  <advance width="407"/>
  <outline>
    <contour>
      <point x="317" y="-117" type="line" smooth="yes"/>
      <point x="331" y="-117"/>
      <point x="342" y="-106"/>
      <point x="342" y="-92" type="curve" smooth="yes"/>
      <point x="342" y="793" type="line" smooth="yes"/>
      <point x="342" y="807"/>
      <point x="331" y="818"/>
      <point x="317" y="818" type="curve" smooth="yes"/>
      <point x="64" y="818" type="line" smooth="yes"/>
      <point x="50" y="818"/>
      <point x="39" y="807"/>
      <point x="39" y="793" type="curve" smooth="yes"/>
      <point x="39" y="702" type="line" smooth="yes"/>
      <point x="39" y="688"/>
      <point x="50" y="677"/>
      <point x="64" y="677" type="curve" smooth="yes"/>
      <point x="181" y="677" type="line"/>
      <point x="181" y="36" type="line"/>
      <point x="64" y="36" type="line" smooth="yes"/>
      <point x="50" y="36"/>
      <point x="39" y="25"/>
      <point x="39" y="11" type="curve" smooth="yes"/>
      <point x="39" y="-92" type="line" smooth="yes"/>
      <point x="39" y="-106"/>
      <point x="50" y="-117"/>
      <point x="64" y="-117" type="curve" smooth="yes"/>
    </contour>
  </outline>
</glyph>
<glyph name="divide.cap" format="1">
  <advance width="534"/>
  <outline>
    <contour>
      <point x="464" y="284" type="line" smooth="yes"/>
      <point x="479" y="284"/>
      <point x="490" y="295"/>
      <point x="490" y="309" type="curve" smooth="yes"/>
      <point x="490" y="391" type="line" smooth="yes"/>
      <point x="490" y="405"/>
      <point x="479" y="416"/>
      <point x="464" y="416" type="curve" smooth="yes"/>
      <point x="69" y="416" type="line" smooth="yes"/>
      <point x="55" y="416"/>
      <point x="44" y="405"/>
      <point x="44" y="391" type="curve" smooth="yes"/>
      <point x="44" y="309" type="line" smooth="yes"/>
      <point x="44" y="295"/>
      <point x="55" y="284"/>
      <point x="69" y="284" type="curve" smooth="yes"/>
    </contour>
    <contour>
      <point x="316" y="92" type="line" smooth="yes"/>
      <point x="330" y="92"/>
      <point x="342" y="103"/>
      <point x="342" y="118" type="curve" smooth="yes"/>
      <point x="342" y="210" type="line" smooth="yes"/>
      <point x="342" y="224"/>
      <point x="330" y="235"/>
      <point x="316" y="235" type="curve" smooth="yes"/>
      <point x="217" y="235" type="line" smooth="yes"/>
      <point x="203" y="235"/>
      <point x="192" y="224"/>
      <point x="192" y="210" type="curve" smooth="yes"/>
      <point x="192" y="118" type="line" smooth="yes"/>
      <point x="192" y="103"/>
      <point x="203" y="92"/>
      <point x="217" y="92" type="curve" smooth="yes"/>
    </contour>
    <contour>
      <point x="316" y="465" type="line" smooth="yes"/>
      <point x="330" y="465"/>
      <point x="342" y="476"/>
      <point x="342" y="490" type="curve" smooth="yes"/>
      <point x="342" y="582" type="line" smooth="yes"/>
      <point x="342" y="597"/>
      <point x="330" y="608"/>
      <point x="316" y="608" type="curve" smooth="yes"/>
      <point x="217" y="608" type="line" smooth="yes"/>
      <point x="203" y="608"/>
      <point x="192" y="597"/>
      <point x="192" y="582" type="curve" smooth="yes"/>
      <point x="192" y="490" type="line" smooth="yes"/>
      <point x="192" y="476"/>
      <point x="203" y="465"/>
      <point x="217" y="465" type="curve" smooth="yes"/>
    </contour>
  </outline>
</glyph>
<glyph name="f_f_i" format="1">
  <advance width="1057"/>
  <outline>
    <contour>
      <point x="265" y="0" type="line"/>
      <point x="279" y="0"/>
      <point x="290" y="11"/>
      <point x="290" y="25" type="curve"/>
      <point x="290" y="384" type="line"/>
      <point x="486" y="384" type="line"/>
      <point x="486" y="25" type="line"/>
      <point x="486" y="11"/>
      <point x="497" y="0"/>
      <point x="511" y="0" type="curve"/>
      <point x="633" y="0" type="line"/>
      <point x="648" y="0"/>
      <point x="659" y="11"/>
      <point x="659" y="25" type="curve"/>
      <point x="659" y="384" type="line"/>
      <point x="827" y="384" type="line"/>
      <point x="827" y="25" type="line"/>
      <point x="827" y="11"/>
      <point x="838" y="0"/>
      <point x="852" y="0" type="curve"/>
      <point x="974" y="0" type="line"/>
      <point x="989" y="0"/>
      <point x="1000" y="11"/>
      <point x="1000" y="25" type="curve"/>
      <point x="1000" y="495" type="line"/>
      <point x="1000" y="509"/>
      <point x="989" y="520"/>
      <point x="974" y="520" type="curve"/>
      <point x="659" y="520" type="line"/>
      <point x="659" y="545" type="line"/>
      <point x="659" y="583"/>
      <point x="674" y="604"/>
      <point x="717" y="604" type="curve"/>
      <point x="974" y="604" type="line"/>
      <point x="989" y="604"/>
      <point x="1000" y="615"/>
      <point x="1000" y="629" type="curve"/>
      <point x="1000" y="715" type="line"/>
      <point x="1000" y="729"/>
      <point x="989" y="740"/>
      <point x="974" y="740" type="curve"/>
      <point x="709" y="740" type="line"/>
      <point x="572" y="740"/>
      <point x="486" y="689"/>
      <point x="486" y="550" type="curve"/>
      <point x="486" y="520" type="line"/>
      <point x="290" y="520" type="line"/>
      <point x="290" y="545" type="line"/>
      <point x="290" y="583"/>
      <point x="305" y="604"/>
      <point x="349" y="604" type="curve"/>
      <point x="420" y="604" type="line"/>
      <point x="434" y="604"/>
      <point x="445" y="615"/>
      <point x="445" y="629" type="curve"/>
      <point x="445" y="715" type="line"/>
      <point x="445" y="729"/>
      <point x="434" y="740"/>
      <point x="420" y="740" type="curve"/>
      <point x="341" y="740" type="line"/>
      <point x="203" y="740"/>
      <point x="117" y="689"/>
      <point x="117" y="550" type="curve"/>
      <point x="117" y="520" type="line"/>
      <point x="41" y="520" type="line"/>
      <point x="27" y="520"/>
      <point x="16" y="509"/>
      <point x="16" y="495" type="curve"/>
      <point x="16" y="409" type="line"/>
      <point x="16" y="395"/>
      <point x="27" y="384"/>
      <point x="41" y="384" type="curve"/>
      <point x="117" y="384" type="line"/>
      <point x="117" y="25" type="line"/>
      <point x="117" y="11"/>
      <point x="128" y="0"/>
      <point x="142" y="0" type="curve"/>
    </contour>
  </outline>
</glyph>
<glyph name="four.otlf" format="1">
  <advance width="667"/>
  <outline>
    <contour>
      <point x="508" y="0" type="line" smooth="yes"/>
      <point x="523" y="0"/>
      <point x="534" y="11"/>
      <point x="534" y="25" type="curve" smooth="yes"/>
      <point x="534" y="135" type="line"/>
      <point x="623" y="135" type="line" smooth="yes"/>
      <point x="637" y="135"/>
      <point x="648" y="146"/>
      <point x="648" y="160" type="curve" smooth="yes"/>
      <point x="648" y="265" type="line" smooth="yes"/>
      <point x="648" y="278"/>
      <point x="638" y="290"/>
      <point x="622" y="290" type="curve" smooth="yes"/>
      <point x="534" y="290" type="line"/>
      <point x="534" y="675" type="line" smooth="yes"/>
      <point x="534" y="689"/>
      <point x="523" y="700"/>
      <point x="508" y="700" type="curve" smooth="yes"/>
      <point x="356" y="700" type="line" smooth="yes"/>
      <point x="340" y="700"/>
      <point x="327" y="693"/>
      <point x="319" y="683" type="curve" smooth="yes"/>
      <point x="29" y="291" type="line" smooth="yes"/>
      <point x="23" y="283"/>
      <point x="18" y="273"/>
      <point x="18" y="261" type="curve" smooth="yes"/>
      <point x="18" y="160" type="line" smooth="yes"/>
      <point x="18" y="146"/>
      <point x="29" y="135"/>
      <point x="43" y="135" type="curve" smooth="yes"/>
      <point x="353" y="135" type="line"/>
      <point x="353" y="25" type="line" smooth="yes"/>
      <point x="353" y="11"/>
      <point x="364" y="0"/>
      <point x="378" y="0" type="curve" smooth="yes"/>
    </contour>
    <contour>
      <point x="357" y="508" type="line"/>
      <point x="357" y="283" type="line"/>
      <point x="196" y="283" type="line"/>
    </contour>
  </outline>
</glyph>
<glyph name="multiply.cap" format="1">
  <advance width="606"/>
  <outline>
    <contour>
      <point x="145" y="89"/>
      <point x="161" y="89"/>
      <point x="171" y="99" type="curve" smooth="yes"/>
      <point x="303" y="230" type="line"/>
      <point x="434" y="99" type="line" smooth="yes"/>
      <point x="445" y="90"/>
      <point x="460" y="90"/>
      <point x="470" y="99" type="curve" smooth="yes"/>
      <point x="554" y="183" type="line" smooth="yes"/>
      <point x="564" y="193"/>
      <point x="564" y="209"/>
      <point x="554" y="219" type="curve" smooth="yes"/>
      <point x="423" y="350" type="line"/>
      <point x="554" y="481" type="line" smooth="yes"/>
      <point x="564" y="492"/>
      <point x="564" y="507"/>
      <point x="554" y="517" type="curve" smooth="yes"/>
      <point x="470" y="601" type="line" smooth="yes"/>
      <point x="460" y="611"/>
      <point x="445" y="611"/>
      <point x="434" y="601" type="curve" smooth="yes"/>
      <point x="303" y="470" type="line"/>
      <point x="171" y="602" type="line" smooth="yes"/>
      <point x="161" y="611"/>
      <point x="145" y="611"/>
      <point x="136" y="602" type="curve" smooth="yes"/>
      <point x="52" y="518" type="line" smooth="yes"/>
      <point x="42" y="507"/>
      <point x="42" y="492"/>
      <point x="52" y="482" type="curve" smooth="yes"/>
      <point x="183" y="350" type="line"/>
      <point x="52" y="218" type="line" smooth="yes"/>
      <point x="42" y="208"/>
      <point x="42" y="193"/>
      <point x="52" y="183" type="curve" smooth="yes"/>
      <point x="136" y="99" type="line" smooth="yes"/>
    </contour>
  </outline>
</glyph>
<glyph name="plus.cap" format="1">
  <advance width="607"/>
  <outline>
    <contour>
      <point x="348" y="81" type="line" smooth="yes"/>
      <point x="362" y="81"/>
      <point x="373" y="92"/>
      <point x="373" y="107" type="curve" smooth="yes"/>
      <point x="373" y="287" type="line"/>
      <point x="548" y="287" type="line" smooth="yes"/>
      <point x="562" y="287"/>
      <point x="573" y="298"/>
      <point x="573" y="312" type="curve" smooth="yes"/>
      <point x="573" y="390" type="line" smooth="yes"/>
      <point x="573" y="404"/>
      <point x="562" y="415"/>
      <point x="548" y="415" type="curve" smooth="yes"/>
      <point x="373" y="415" type="line"/>
      <point x="373" y="590" type="line" smooth="yes"/>
      <point x="373" y="604"/>
      <point x="362" y="615"/>
      <point x="348" y="615" type="curve" smooth="yes"/>
      <point x="261" y="615" type="line" smooth="yes"/>
      <point x="247" y="615"/>
      <point x="236" y="604"/>
      <point x="236" y="590" type="curve" smooth="yes"/>
      <point x="236" y="415" type="line"/>
      <point x="60" y="415" type="line" smooth="yes"/>
      <point x="46" y="415"/>
      <point x="35" y="404"/>
      <point x="35" y="390" type="curve" smooth="yes"/>
      <point x="35" y="312" type="line" smooth="yes"/>
      <point x="35" y="298"/>
      <point x="46" y="287"/>
      <point x="60" y="287" type="curve" smooth="yes"/>
      <point x="236" y="287" type="line"/>
      <point x="236" y="107" type="line" smooth="yes"/>
      <point x="236" y="92"/>
      <point x="247" y="81"/>
      <point x="261" y="81" type="curve" smooth="yes"/>
    </contour>
  </outline>
</glyph>
<glyph name="seven.otlf" format="1">
  <advance width="667"/>
  <outline>
    <contour>
      <point x="320" y="0" type="line" smooth="yes"/>
      <point x="341" y="0"/>
      <point x="351" y="15"/>
      <point x="356" y="24" type="curve" smooth="yes"/>
      <point x="585" y="535" type="line" smooth="yes"/>
      <point x="591" y="548"/>
      <point x="596" y="561"/>
      <point x="596" y="581" type="curve" smooth="yes"/>
      <point x="596" y="674" type="line" smooth="yes"/>
      <point x="596" y="689"/>
      <point x="586" y="700"/>
      <point x="571" y="700" type="curve" smooth="yes"/>
      <point x="97" y="700" type="line" smooth="yes"/>
      <point x="83" y="700"/>
      <point x="72" y="689"/>
      <point x="72" y="674" type="curve" smooth="yes"/>
      <point x="72" y="569" type="line" smooth="yes"/>
      <point x="72" y="554"/>
      <point x="83" y="543"/>
      <point x="97" y="543" type="curve" smooth="yes"/>
      <point x="394" y="543" type="line"/>
      <point x="165" y="31" type="line" smooth="yes"/>
      <point x="164" y="29"/>
      <point x="163" y="25"/>
      <point x="163" y="22" type="curve" smooth="yes"/>
      <point x="163" y="10"/>
      <point x="172" y="0"/>
      <point x="184" y="0" type="curve" smooth="yes"/>
    </contour>
  </outline>
</glyph>
<glyph name="zero.otlf" format="1">
  <advance width="667"/>
  <outline>
    <contour>
      <point x="527" y="-9"/>
      <point x="613" y="106"/>
      <point x="622" y="253" type="curve" smooth="yes"/>
      <point x="625" y="307"/>
      <point x="625" y="393"/>
      <point x="622" y="450" type="curve" smooth="yes"/>
      <point x="614" y="596"/>
      <point x="520" y="709"/>
      <point x="332" y="710" type="curve"/>
      <point x="145" y="709"/>
      <point x="51" y="596"/>
      <point x="43" y="450" type="curve" smooth="yes"/>
      <point x="40" y="393"/>
      <point x="40" y="307"/>
      <point x="43" y="253" type="curve" smooth="yes"/>
      <point x="52" y="106"/>
      <point x="138" y="-9"/>
      <point x="332" y="-10" type="curve"/>
    </contour>
    <contour>
      <point x="268" y="141"/>
      <point x="240" y="187"/>
      <point x="237" y="258" type="curve" smooth="yes"/>
      <point x="235" y="315"/>
      <point x="235" y="389"/>
      <point x="237" y="444" type="curve" smooth="yes"/>
      <point x="240" y="512"/>
      <point x="266" y="561"/>
      <point x="332" y="561" type="curve"/>
      <point x="398" y="561"/>
      <point x="425" y="512"/>
      <point x="427" y="444" type="curve" smooth="yes"/>
      <point x="430" y="389"/>
      <point x="430" y="315"/>
      <point x="427" y="258" type="curve" smooth="yes"/>
      <point x="425" y="187"/>
      <point x="397" y="141"/>
      <point x="332" y="141" type="curve" smooth="yes"/>
    </contour>
  </outline>
</glyph>
